<mxfile host="app.diagrams.net" modified="2023-03-09T22:58:28.624Z" agent="5.0 (Windows NT 10.0; Win64; x64) AppleWebKit/537.36 (KHTML, like Gecko) Chrome/110.0.0.0 Safari/537.36" etag="E6Y7dudCp4CTrOQCUVc7" version="20.8.23" type="github">
  <diagram name="Page-1" id="n9rpbCvoJLKbOODJZuDy">
    <mxGraphModel dx="942" dy="930" grid="1" gridSize="10" guides="1" tooltips="1" connect="1" arrows="1" fold="1" page="1" pageScale="1" pageWidth="850" pageHeight="1100" math="0" shadow="0">
      <root>
        <mxCell id="0" />
        <mxCell id="1" parent="0" />
        <mxCell id="5SupTR_W5KZlv2ZlH3EO-1" value="Base Station Integration" style="rounded=1;whiteSpace=wrap;html=1;fontSize=17;fillColor=#647687;fontColor=#ffffff;strokeColor=#314354;" vertex="1" parent="1">
          <mxGeometry x="39.59" y="80" width="240" height="40" as="geometry" />
        </mxCell>
        <mxCell id="5SupTR_W5KZlv2ZlH3EO-37" style="edgeStyle=orthogonalEdgeStyle;shape=flexArrow;rounded=0;orthogonalLoop=1;jettySize=auto;html=1;exitX=1;exitY=0.5;exitDx=0;exitDy=0;entryX=0;entryY=0.25;entryDx=0;entryDy=0;fontSize=25;fillColor=#dae8fc;strokeColor=#6c8ebf;" edge="1" parent="1" source="5SupTR_W5KZlv2ZlH3EO-3" target="5SupTR_W5KZlv2ZlH3EO-26">
          <mxGeometry relative="1" as="geometry" />
        </mxCell>
        <mxCell id="5SupTR_W5KZlv2ZlH3EO-3" value="" style="shape=image;verticalLabelPosition=bottom;labelBackgroundColor=default;verticalAlign=top;imageAspect=0;image=data:image/png,iVBORw0KGgoAAAANSUhEUgAAAXIAAAAtCAYAAACzi+CfAAAAAXNSR0IArs4c6QAAAARnQU1BAACxjwv8YQUAAAAJcEhZcwAADsMAAA7DAcdvqGQAAA8uSURBVHhe7Z0LUFRXmsf/oLRBsDDsmDUbZ1i24ppKwQyllVSYCiEli2VHCwuQBKOBrIgrYLbRWZ9QhnHBZ0Zhh0dUTAImiiKwUpi2ZNsaQmpxyYayVsod1ilZHR1dM7ayQozdQvacc8/tph90NwjO7ez3qzree79zgO887v9+55zbbcD3DDD4QU1DQ0O2c4IgCELbCCHngs3T4OAgHj16JI48cUHn8DyCIAhCmwgh54LNhdtiseC7hxY8kEcScIIgCO0TwERcCDkX8W8ffIe79/vxo6enY1pICAIDA2QxgiAIQqsE8n+4kPMlFR6JcxEPmxZKIk4QBOEnBPLlE564mPPlFB6JEwRBEP6DiMhVIedHisQJgiD8CyHkHNrYJAiC8E8CBgcHv7darRgYGMCd/+3H8xE/llmO7Kmsxefn/lVsiBLemRr8FN6Y/3NszM2QFoIgiInBFpF7gov4ydPnSMRHAW8r3ma87QiCICYSn4ScR+LE2KC2IwhiovFJyCkSHzvUdgRBTDQ+CTlBEAShXUjICYIg/BwScoIgCD+HhJwgCMLPISEnCILwc3z6QNDLi96VZ0+IdTvxVeJfyAuF+/9Rh/mbjfIKWLGrCoafTpVXzvwBp97YgmKsxInP4xEprS4MXEJZ2m58Ki8nis7Tn8gzgiCI8UdzEXnhgRoXEedM+2k6vjqwUl4xPH6lgI9fN+AP30pwrRk5Cal4s6pHGp4099B9tBSFaTXolhaPjOivFd1VOUhISEfh6dvSNlqsuNpag+2rStB6S5o0jY9td8uEwsWpSFjOyj2QtgnFiq5d6YhLKEKrWbGYm7ay61RsbBpr3wzDfBGNJUVYUXVRGh4XV39duY2W91JZma1oGe3YGC9/H1xE7XLm52Lmp7MPt4zYyNqXt7GSqn27n3xEW0LOIvElYkIwgM6qNMQkKGnfhQGRjR+/hMpk5VTl/oVaWzl72oB/FLnVSLXZzqFX2G6gSbUl75jwaPzxYAP46FHW4bOQvmiOtD1pfo+2w+1oM1vltScm2t+7uNjcjNbeATyUFm0zmrZ7glwz4lCrFbrEhYgPl7bxpPffsP/cRVy1yOvHxd/8/ROgKSEvfEGJxHvPZCGneSqCpijp2KYsNF3j9pVY0yiK2AkIspWzpyAo3+EYiEk22yRh4QSqtiC7TZOYv0CjGMDLsPgn0qZlPPobhKicKphMdShe9Iy0EYKZCShuaYDps0xEBUvbBHL59EnxsM17+xXopE3L+I2/wdHI+KwO7S1FSJwpbSoz9dhjakC7qQjp0jSeaGiNXI/KE+l4KfQG/nnhVpQ4PWK+f/QthgKnYpK0r9hZCcPPRvju9N+34aW/+0heqKjr5Tdw6o2tKJbWJ8FY18gvH8zCyuNWZJfVIiNKGhndZansQadH1dkk3Cl5H9vb2HQ4bC7yduYjZY5sk2+6ULurAscu3EM/E9HwyFeQvSEbi9V8Rn8Pi3TKTuJsDy8jSSpCuyFamQour0aHNDvC/rZpFYa5JPDsr7xgxK6twp7kYWL+dTXiNhqRvrkIf3amFDXcZ10IYt8qQPG7c9jNexEVbFpdJ4s7MgebPtuBxfLGsbA6Vew9hhYWtVtYvSNi9Fi/ORNzZyj56GPT6L3VqPn6OsxOEVj6ngbkzfOlfZ39Ye078wWkGvKR8fJ039vOpZybdh28ja6Dldh3mkWMfNkleDriF+Vh/eq5CBdxiPRlYT6qZpiw6yQvx/yJSsIHJW9jdigvMwxzO7YvL0VrdC6MexKgZvOllSXlPUhZX4TZF6pRce46LGFzkLl5o1InibmjBvvKTei4xdtXQe1P9Xe4RR1X4+Qvx9x5FOWfMF/E+A2CTmeFxeL7ePDNX9fxqwt7BrGJ2a59IHI5jj44opYdua/LW3+Ly33qLM7T77KjoYhcXbB+Gs+lylMu7vU1+OrzGvz72Xp0nanBuV16mfcD58F5tDTdA+ZlIsVZMQVXcHr7FhQykeE3lKWvC/v3mnCTZ/Wfx/6MEhwSIs6xwtzbjt35w9aW+9qxL7cajcNF/HHw6q936nYVoUL12TKAjiOVaGEzMZ/pbYCB10nctBwrrl5ohuG9arn2PIC2fSXY3xGCzAM8OmrAidV8CSgIiwtqhYjb8dC+LrD2vXURh7bsGf36rEduo3X938MgxE6aHtxD28kSpBW2O/YbewDmHFHLMX+6G5j4XxdZw7nZehKtlhBkZziKokpLeQl2MxHnv9vS18Pq9D4a1T64VIM1hc1oGybiY+Yx/e1vZW2wpQGttvHLRVyc2PE6HsaGpe+26INdzeOwnzCMy4f/QfS1XcR9R0NCbsSNu/w4FT+KEAYGE3fnDUmnTU63a+RZ1TLXf+lvO4NGSxBSkl5ze8MBPWjp/HOsq6xF+9kCpPM5Z+8V/DcboDdPH2M/C0S9VQTjWSZYZ2tRtpBFkpYetHbIwWfpV24AXSTS1xbg03o2JeRTPxmFuE4FeQShiF+7m2jck79RBuXnTq31sm7OfMn+FauPqRZ7XuWG67j5DT9GI0/83SpsepFf8yhF9UWNVqzoOl7PpuBBSFxfBZOodxnW8fLfGNF2iZdhWPhNosM0r3P0kdvX7o9MZw+jWPjbg6s32MHXtvM23b7EZkzdzN8ZepTVKz9vqs1FIvPF0mlEh2gblSBbf5sKXhGW7lvihrIzyPr/OBPLyKVIHOlh+9dp+Ij/LXXMsD44/7U6Zqy4w48zWP037MCJFsUndXYVnrxDqeMeGWzxqFbUjyV1XNl4HH+v4+yRLibOIUjZLPvaNjZUvI8HX/1Vx6+ajBsUfzuu/Y84uo7PsfFQPokiYlKx7ddlsl7eo3GOhoQ8AMWX+F3A+m1BldzUNGJNsiLOtg1PZ9ytkU/WULXGAhvAjQcvsoZIQ0pskDS6EvV2rjLVn8Sm/Ube6fmIDQbu3FIim+7jRdAvSEXcggwYzji1HxOHzTuTEB96HXUsCluRxnfbDdjf1Dv6aMtHf72yMBMZMVw8QjBt1Jtad/GHG1ykrWjdl4MEUW9WH1XABSGYtygO4borKF+lvD2w4vgAErMKkBfP/64jI7UvBgdw+UwlCpdnIIG/gbAgC4VfKj8znph/1yNmAFHJCzFXtofuuWjMfV45fzioHBX+BnmroxHKpvq6sKelzZH+1mM41Mcetu8k4Flpc2be63GYzf/WpBD85fOzFKNKzDJ8tDYOUZbfomLvVrzJ37RJ2YraTjYTGzWP4+9d3BRS8RoSE5+Bzu1Wly/jwTf6e0yo+EUOluiVMaPfe17mjC9R7+7EpvmzcP9SA7a/Z2A+p2OJoQZdDg9s92hK8QL2bxCbmjwqfymbL6nU4uvWelww1WO9uMEH8J/n7e+Sc6b9bJlYenFM6oPAP7F0GFHTB8QvTUCE20GqEPWi040mmRKsiFLsOztwSgiQPQ1fmw5/ORPFPBI3HsanBXpEDV5HY/n7qHM72O/iDvPJHb76O37cRb+LL0z8xVSAR2lqNGNPyrIJi+Q+aYeZ1fvjRsVuaizDtrcVQXFmpPY1N5dg5V4TLEk7YOK/o/4DrHNYlnFm5LbzRPhP/kps7nU3nUGXfO3O0nseX/yOn7H6jmpjlNWdTdsRpsfiV10fWi6Ye/Cb31wRp6GhavkQRCTno6qRb+iVoWr1K3hWLL9UoM1d/cz30O/wsBkNnv3ViRnVFfyXXPYxdzTjtGgXFV/GgxPu/L1lxPbcStQ90uNDPgPh9wp7AE0IoZFYXFAm7lnTx0VYx+pt7m6GYZ/TMpobJsujNggMQsmqNPxyfSkuLHxOGhX4EkrcLz7HJN0UeP9vRd0syfgN19HCxMaii0NKvH2TaTTMTlqG2KZqdBzZiiVHpFEwbONEbjC68jS7ceWpRNw0lvMoTFE3L4Zv1Hjz13kjiE1Jy3MQV85OXlyFU7/Ww/fgW4cpIvS4jYrcVFQIm1onvjmqR0SnEY27DCyJTInq7wD6uSD2VrLoqlLJYujC5iDFkM+ict/eprnfrywBdBw0IO6gOB0RT23nutlmRE6C0idi4zUmDpkzjDj0jRGGNMe+ikhOQmyYvPABy5cnUdHLHk6rEzDbw8PW1jcqbOaWIoV0xM1BHRNNIawS9vtFtb8sZTPCUsU2bPPQFzz7G43Xk6ej9ngP9v9tKvZLqyO+jAeJJ38ffIs/8uvuGry5oEZkueByL/Vg9/JU7GZnI28EO/X1PP4efA52uwmidGFBwj9PaG4NImDyVASVbnBZ935t078gaIpdxD/dmOVSxp6ysKZJKWdHfadcfcdco3SbUMcH8LtLMXesr6LN1KO4NBfpMdNHWF93B9/RT8C2yh1IcXh1MBqZe1MRHz7Cksl4+Osz05G4MR8pkSFuB7YuZhX+aWcqEkfI56Kf+I7rOj3f1KvbXmLf1PMCj0rz1LZlIhYVm4pNye4+P+yl7bwxaQ4yDrDILHYWwmWFQsMjkbL2A3yYE+315rZzD23NysM2O8n9LEMXOQfxzw0bL+LtmFx8dIAJ3kj9Kute9nG+Y9/HLMOH70QjYszjwbu/s7N+iW3zZ9n6IHZpAapyHPvW+3iQePI3ciG22PL4219zkZejx1yRObHowmax8VqA+g3eX7vU5kf0f2D4/vohG8Bb1qCw8wVsqy9C4kR8+GFc8TN/e45iRW4Drr6YiROlSXiWR3qDrA7b+Rp3EDJ+VYfsGKXoD4pLNVjxXjMsS3fghJPYaRJ/81cD+Pmu4A+Ma1+grtOKZ5cu8wMRZ/ibv4NWZSM3mEXI6lpo3xV08xnvDD1en6Clzz8tVnQ1G3GVzQ6y3/IHUfQ3f7UBReRPAPrSLO1w81wlKg6ft32gRXy449WlyF6dgAjf16EIQlOQkD8BSMgJgphIaGmFIAjCz/FJyKcGPyXPiNFCbUcQxETjk5C/Mf/n8owYLdR2BEFMND4J+cbcDCxdNJ+iy1HA24q3GW87giCIicSnzU6CIAhCu9gi8oAAr597JwiCIDSIEHIu4oGBgeI4NOS3X1JCEATx/5JALt6qkD81RYf7AyN8XSxBEAShSUREzkV88uTJCNbp8Me799B3v58ic4IgCD8h4HvG0NAQBgcHYbFY8N1DCx7II8uSxQiCIAitIoScCzZPXMwfPXokjjxxgefwPIIgCEKbCCHnJ6qY88QFXD0nCIIgtI1NyFXUSxJxgiAIfwD4P9mnsm1kJmoVAAAAAElFTkSuQmCC;imageBackground=none;imageBorder=default;container=0;aspect=fixed;" vertex="1" parent="1">
          <mxGeometry x="39.59" y="140" width="285" height="35" as="geometry" />
        </mxCell>
        <mxCell id="5SupTR_W5KZlv2ZlH3EO-38" style="edgeStyle=orthogonalEdgeStyle;shape=flexArrow;rounded=0;orthogonalLoop=1;jettySize=auto;html=1;exitX=1;exitY=0.5;exitDx=0;exitDy=0;entryX=0;entryY=0.75;entryDx=0;entryDy=0;fontSize=25;fillColor=#dae8fc;strokeColor=#6c8ebf;" edge="1" parent="1" source="5SupTR_W5KZlv2ZlH3EO-5" target="5SupTR_W5KZlv2ZlH3EO-26">
          <mxGeometry relative="1" as="geometry" />
        </mxCell>
        <mxCell id="5SupTR_W5KZlv2ZlH3EO-5" value="" style="shape=image;verticalLabelPosition=bottom;labelBackgroundColor=default;verticalAlign=top;imageAspect=0;image=data:image/png,iVBORw0KGgoAAAANSUhEUgAAAWoAAAAsCAYAAABMrvImAAAAAXNSR0IArs4c6QAAAARnQU1BAACxjwv8YQUAAAAJcEhZcwAADsMAAA7DAcdvqGQAAA6FSURBVHhe7Z0PTBRXHse/oKxFMChXe3q2x9HUozHQGps20pTSuEcjldDwr8VWoafiCdpb5Op/0lIP1GKrcBWoiragVRSFk6Br5JaU0hyePYk5iXfERk6L1WhFPaG2sy6992beAPuP3WURFvP7JOPM/N5b9vf+zHd+772Z1etnBhh8p27d3d09xwRBEMTwIgs1F2S+mUwm3Lt3T97zjQs2h6cRBEEQw4Ms1FyQuTBLkoQff5JwV+xJoAmCIIYfLybSslBzkf7h7o+4eacTD08Yj3F+fvD29hLZCIIgiOHCm//DhZpPefBImot0wDh/EmmCIAgPwZtPb/CNizWf7uCRNEEQBOE5yBG1KtR8T5E0QRCEZyELNYcWDgmCIDwTL5PJ9LPRaERXVxdu/K8TTwQ9JpLMyS8ux7H6v8sLjoRjxvo+hFdmPY+VGSnCQhAEMTB6Iur+4CJ96Gg9ibQL8LridcbrjiAIwh2cEmoeSRMDg+qOIAh3cUqoKZIeOFR3BEG4i1NCTRAEQQwfJNQEQRAeDgk1QRCEh0NCTRAE4eGQUBMEQXg4Tr3w8tyct8TRELF8I76O+pU4UbjzrwrMWq0XZ8C8TSXQPTVWnFnyHY68sga5WICDxyIRLKxWdJ1DYdIH2CtO7xenjn4mjgiCIFzH4yLq7O1lViLNGfdUMr7evkCcMfp95d3J1+FHwlvzl2qQrk3AayWtwjDU3ELLvgJkJ5WhRVj6xa6/RrSUpEOrTUb20WvC5ipGXKwrw/pFeai7KkwejZN1d9WA7JgEaN9k+e4K233FiOZNyYjQ5qCuQ7F0VK9l5wlYWT3QtulDx1lU5eVgXslZYXAXa3+dx8X+aweprRE7s3VYXzMI9TMAPEuoWST9qhzQd+FUSRKma5Vty5kuORmPPYviOOVQ5c6Z8p58vdsK/FlOLUVCj60ebbLtMqpVW9yG+x5NuwfroPv2sQ72KJLnhAjbUPMtGnY1oqHDKM774377exNna2pQ19aFn4TFs3Gl7oaQS3rsrDNCEzUbkYHCNpi0/QNb68/ioiTO3cUtfwenDTrP6FHe1I5OkzAMMR4l1NlPKpF02/GFSK8ZC58xyrZ/1UJUX+L2BVhSJWfpxcunJ1/v5gPlNwC9MarHNkq2cLxVm0+vzSPp+BJVcgedi5hfC5sn06+/PghNL4HBUIHcOY8IGyEzSYvc2sMwfJ6KUF9hu4+cP3pIvpkufWMmNMLmyYw0f+8HHjRHHY3ig8l41v8y/jp7LfIsbiE/3/sB3d5jMUrY520shu5pO7+d/W0Dnv3DbnGios5XX8aRV9YiV1iHgoHOUZ/fsRALDhiRVliOlFBhZLQUJrAbWTRKTsTiRt57WN/AhmMBM7B0YybiQ0SdXG9G+aYi7D9zC51MJAODZyJtRRpi1HRGZyuLVAoP4UQrzyOIzUGjLowNx/VY+WYpmoTZHPbdhkXo45JM//6KE0b4shLkx/UR69OliFipR/LqHPzieAHKuM8aP4S/vg65b4Wwi/Msitiwt0JkNycEqz7fgJhJypnEylS0eT9qWdQtsXIHTY9G1upUzJiopOM2G5ZvLkXZ6XZ0WER8yfmHsfQZZ+rX0h9Wv5OeRIIuEynPjXe+7qzy2ahX0zU07yjGlqMsQuXTIr7jETlnKbIWz0CgHGcIX2ZnomSiAZsO8XzMn9BYfJj3Bqb68zx96GjE+jcLUBeWAX2+Fmoyn/p4dVsr4rNyMPVMKYrq2yEFhCB19UqlTIKOpjJs2WZA01Vevwpqe6p/wyZqvxokfzn9+eJsG1j5zOp3RngisnTRCGJfZtl3+2JZ7r79Wv2c2qc4/frrAA+KqNUJ4wmYkiAOuXhXluHrY2X454lKNB8vQ/2maJH2gHP3JGqrbwHPpCLeUhFlLuDo+jXIZiLCG1263Yytmw24wpM6T2JrSh52yiLNMaKjrREfZPaZ273diC0ZpajqK9Lu4NBfx1RsykGR6rPUhaY9xahlIymnaTsMHS+TLNIcIy6eqYHu7VIx99uFhi152Nrkh9Tth9FoOIyDi/kUjQ9i1pX3XFAK/dSvFax+r57FzjX5qB3UufNrqMv6I3SymAnT3VtoOJSHpOxG83ZjN7j0PWo+5k/LYSbu7XJSX67UHUKd5Ie0FHPRU6ndlocPmEjzvy3dbmVleg9VahucK8OS7Bo09BGaAeOuv4PpS19Y/TbXl2LBrsGaXxe46a8HCbUel2/y/Vg8HCQbGEy8LRf8LBYRbc5RLywVqSOXzobjqJJ8EB/7os0LCmhF7alfYnlxORpPrEMyHxO2XcB/Wce/cnQ/+ywQ+noO9CeYIJ0oR+FsFglKrahrEoshUqdyoWuCkbxsHfZWVsjCpUQ9jEnRyOfnhhwkywYehSji1mgjmu7P31Cd8rkjyxzMWzNf0j5i5TGUI/8FbmjHlet8H4al8veWYNU0fs6jaNUXNZo2ovlAJRsi+yAqqwQGudyFWM7zX9ej4RzPw5D4XKUG4xyOoe3Xb68/YjuxC7myv624eJntnK07q3wWnGMjnhbm78RoFFYqnzeUZyCK+SKd0qNJrhsVn572NqybKVtarsoXVC8m1v4HmBgGJyLK3s30t0nYzb9L7TOsDU6eVvuMETf4fiIr/4oNOFir+KRGhIFxG5Qy5otgikfRcvnYpvarHtz014EvzrZBj89iM3ycgKnMLn3DRlxsb9l3eQSs5nUmEu7Bkb8O8CCh9kLuOd7LWbu8XCIWDfVYEqeIb8+CoiW25qhHe1CxBgLroFU72B09OAnx4T7CaE3oGxnKUHwUG5brecNnItwXuHFViUxaDuQg+uUERLycAt1xi/pjF//qjbGI9G9HBYui5iUlIyJGh63Vba7f8Z301yGzU5EynYuDH8a5vGh0E99d5iJsRN2WdGjlcrPyqAIt44dn5kQgUHMB2xaxdG0C5h3oQtTCdVgayb/XHHv1C1MXzh8vRvabKdCyvxHx8kJkf6V8ZjDp+KZVjuBD42ZjhqgPzZQwzHhCOf7JbGHrd1i6OAz+o1iegAnCZk5n3X7svM1upvO1mCxsljzzUgSm8u8a5YffPPGoYlSZPhe7l0UgVPoPijavxWv8SZX4tSg/xUZSLuOmv4Ply9VmVGS/g3ns87w/aN8+jPMiaVBx01+PUjSvrSvkRUMeVT+bxqc8ynG6rhJnDJXIki/gLvz7ZO+z1JxxT8+Vp0bMN1XoRyZSkx5lt4HIRC2C+lnvDJ1mcSEJxvgqohM+fwOOyALTu/W9gwc+l4pcHknrd2HvumiEmtpRte09VJiJm8pN3GA+2cJZfwePm+i08oWJuxzK+yF+daESUfcptzKt0Y4TnzWig5X70yrFbqgqxLtvKIJhib367ajJw4LNBkixG2Dgf6PyQyw3mzaxxH7d9Ufgrx+XF89aqo+jWTyWJrWdxJff8CNWXpcWHlnZD7GbaUA0Yl6wvilZ0dGKL764IB/6+6v5/RAUl4mSKtZnagtRsngmJsvTI0VosFW+jltuPCXhyF8XfbHVBqazKPp9HorOPo4seRRRgYPva+WI2h7fd9gJGBmnz12Qg5yO+mJsOa7YenHVX3NGi71n4O2DvEVJeD+rAGdmTxFGBT7FEfGnYxilGQPH/62jjSmTEUM7apmYSJoIxEf2LuK4wtTYuQivLkXTnrV4dY8wyvRZeBMLeNZMYBemOBRouFpIJ5Edry4e9F30cuSv9UJg07Z0RGxjB9MW4cjH0XA+eNZgjBxaXENRRgKKZJtaJr74GI2gU3pUbdKxTU4UqP52oZMLXlsxXo0uVpIYmoAQxOsyWVTt3DD0TqcyRG/aoUPEDvnQLv3VnfXimx7pWqVN5EWo6RFInajHzut66JLM2yooLhbhAeLECaSvDqGojd18FjMh6udm2tM2KmzkFS+E0u5ioYbdNHg5VXiUzHbSVwVsRFeg2HoWE53Dkb9O+8Kw2wZSFySurJIBuhiDkmQP4cP5fe8gYp9yrC4EBoaEsIifjX7qN0Nbr6RZ4oq/tvC4OQKv0WPhU7DCat75xVV/g8+YXpHeu3KhVZ7ebSGWVCv5elGfqVafsfZQWgyo4B30rUTMGOijWpOikVuQgeTp4+3Mb9uCPyGhxbvFGxBv9mhdGFI3JyAy0M6UxmD46zTjEbUyE/HBfrIQWKKZvgh/2ZiAKDvpXNSj5lvPk/NFs4r1eb2LZg7gkdFStW7ZhRYanoBVcbbef3VQd44YFYKU7TlYHv4oAkWB/AODEb/sQ3ySHmanjLa4hYYa5WaaFmt7lKAJDkHklD79RX66JAO7tzNBs9euouyFn2aatz0b5n8yPwxBA+4Pjv21wp4v/bWB70wkr45AaICS5h8YhuQVCYiRz8wJnJOJ3Fm97WDGtETksX4lp3E/Zi1Cvo1+ZoZdf23jma+QP2A4/3ge66BrliD71JN4tzIHUS7P0w41I8zf1n2Yl3EYF6el4mBBLCbzKMnEyrCezzH7IOWjCqRNV7I+UJwrw7y3ayAlbsDBdAcC4gmMNH+HgBG+6vaAcelLVJwyYnLi3BEg0oyR5q/JqCyU+rIISp07vX0BLXxEyob4Lzk/Mh9BGNFco8dFFlmmvT4SRG+k+Ts0UEQ9BNCPMnkOV+qLUbTrZM9LB5qARxD+QiLSFmvlFxwIwhMhoR4CSKgJgnAHmvogCILwcJwS6rG+D4kjwlWo7giCcBenhPqVWc+LI8JVqO4IgnAXp4R6ZUYKEufMoujQBXhd8TrjdUcQBOEOTi0mEgRBEMNHT0Tt5eXwvWyCIAhiGJCFmou0t7e3vO/uHrE/kkEQBPFA4s3FWRXqh8ZocKfL/q9DEQRBEEOPHFFzkR49ejR8NRp8f/MWbt/ppMiaIAjCQ/D6mdHd3Q2TyQRJkvDjTxLuij1LEtkIgiCI4UIWai7IfONife/ePXnPNy7gHJ5GEARBDA+yUPMDVaz5xgVaPSYIgiCGE+D/241vuGsSRZsAAAAASUVORK5CYII=;imageBorder=default;container=0;aspect=fixed;" vertex="1" parent="1">
          <mxGeometry x="39.59" y="210" width="285" height="35" as="geometry" />
        </mxCell>
        <mxCell id="5SupTR_W5KZlv2ZlH3EO-6" value="Device Integration" style="rounded=1;whiteSpace=wrap;html=1;fontSize=17;fillColor=#647687;fontColor=#ffffff;strokeColor=#314354;" vertex="1" parent="1">
          <mxGeometry x="39.59" y="290" width="240" height="40" as="geometry" />
        </mxCell>
        <mxCell id="5SupTR_W5KZlv2ZlH3EO-39" style="edgeStyle=orthogonalEdgeStyle;shape=flexArrow;rounded=0;orthogonalLoop=1;jettySize=auto;html=1;exitX=1;exitY=0.5;exitDx=0;exitDy=0;entryX=0;entryY=0.25;entryDx=0;entryDy=0;fontSize=25;fillColor=#d5e8d4;strokeColor=#82b366;" edge="1" parent="1" source="5SupTR_W5KZlv2ZlH3EO-7" target="5SupTR_W5KZlv2ZlH3EO-27">
          <mxGeometry relative="1" as="geometry" />
        </mxCell>
        <mxCell id="5SupTR_W5KZlv2ZlH3EO-7" value="" style="shape=image;verticalLabelPosition=bottom;labelBackgroundColor=default;verticalAlign=top;aspect=fixed;imageAspect=0;image=data:image/png,iVBORw0KGgoAAAANSUhEUgAAAZAAAAAtCAYAAACAnD3TAAAAAXNSR0IArs4c6QAAAARnQU1BAACxjwv8YQUAAAAJcEhZcwAADsMAAA7DAcdvqGQAABF/SURBVHhe7Z0NUFRXlsf/gLRRtFBnTDQxMk6N42wWZi2tSYUpkSkZLDtSWHxYaY2BRMAR1KBJNHGgjOOC8SMRyCqsEWcEHQJRYaUwTdmFVQRrYXGl3LWLLdaUBBdHy6woK0RtRPfc9+7rLxq6IYoNdX5Vz9fvvNvNveede8+5595ufR49evSYQG9vLx4+fKicxUFyCMQ9hmEYhnHGh5zFY+EwLBYL7j+w4J48s+NgGIZhBsKHZh2PhfP44d593L7bhZ9OnoSJAQHw9fWRRRiGYRimL74iVSVSV2LmIZxH4MQJ7DwYhmEYt/iKVJVwIiJtJWYeDMMwDOMJVgcizjzzYBiGYTzFV/zDC+YMwzDMYFEcCMMwDMMMFp/79+8/7u7uxq3/68Ivgl6WYkf25Bfj67P/quzUYtwzftxzeH3Rb7ElLUFKGIZhRh9uZyDCeZw4fZadxyAQuhI6E7pjGIYZrbh1IGLmwQwN1h3DMKMZtw6EZx5Dh3XHMMxohhfRGYZhmCHBDoRhGIYZEuxAGIZhmCHBDoRhGIYZEuxAGIZhmCHh9ouEry59W74aJjZ9gvORL8oLlbv/WYpFHxnlFbBqVwHSfz1eXjnzN5x6fSuysBpffR2OWVLah+5m5C3fjWPy8mnRePqIfDUErlYi9Z0i3Irfia9S50jhcHIH5pIjKK2YDMPxRARLab/0W98emAveRfqJ2wh973NkLX1eygdDD9pMJSgqa0doVgYip0mx1+Kh7m7UIDM5H/WB0cgrpHLjpPyp0YOmXW8h3fQrbDu+HZFTpNiBm6jakIrdzXPw4V93IuqJ6/pJ2MNgaUd5cjpyOqLxZ3oes/2keDi4YcSWNwtRLy9t6FFQk+y+Xz0TPLNfr5qBZB4s6uM8BBN/bcD5g6vlFTHgb3d5+LteXv/zX9TRS0pgxgwYlj4L5yH4H9QerkNtR4+8HoinXd/buFRZCVNrNx5IiXczGN0NI1eNOGTqgS5yCcJdOo/RieXcCRxoBYLfiBhe5zFi8cx+vceB0MxjmTIB6kZjwXLMjVCPfRe7ldt4+TfIj1Ffaty9WGwtZzs24x+Vu4WIs8rOgmyHuIYKTRaz86nPPn4UHd+gXOnoKxA1U8q8mQHr64/g1ALU1JQOU7Q5gpgWgayqk6j563DMPoDLp08oTn7dytegk7LhZ7jt4Q5qK+tg0YUhJXqGlD0DXknGqZqTqLMe3jr78ByvcSCZv1JnHq3VSUitHA//serx5YdJqLgq5KuxtlwpYsPH31rOdvhD/VF6X/hZZbaQw1eT+Xt3GHL5RAlqEYDEKMeObs6LQ1hEIcy9N1G7IxUREXGIiM1GeYt0tILvm1D8fhL0dC8swoBlybmosr9PdLUYkZOmlZFH3iX1pphyK7LtKFUERqRay9HfVmSODFxf27Gl4qa8I7lQqMgPmC6hVKuzPgFbjrTAohS4hAPKe0VKRVy3YPeb2uf9EVU3lEIKFtGm5ARFJ6Ldq94vQtP38qag8xLKM9OxTK+933YcuKAWca9frT7aQfp9czuKG++otz3VnbWci3saVIemgu1YFSXLRCUhs6AJHb3yvlaXvXUwH9HKUX3SS3C5Sxaxp6MOX1ZSO+ZHY7GTk+9oLMEOqz28i5xv5Q07BtLv9bJ0pY6pZe2qQNJ2NFWRZ1ar+nFrD4LeOzCX5SJ9ucGurKN+3D5re5pPoYie7/RoPeY5OWnL1TrqK6kONuFQp85WVGV/YHsG9nW514Ac8T59LpruKaVVhFyUiy3CZeuzGoBrZAvK55A9X5OyLnq2BnuZSCvS9YZKNFXnIjVW6EY8a2cbF/W12XhEbDpyKlrR5Wwzoq9fq6O+JD9nayXahM0Msu97iQPR48XJ4nwN/5E7Fg7/LYnfWGQnL0ecs5yY+A8rcP7rIsfDPtU1UiEDrKqgDjc/EbEuQ5QrOL1jKzJrbyqDrKWzCTl7a3Bd3Ooi403IxqGLd6COIT3oaCVD2ZgNkzbYdtZhX1ohDYpamR+J2/q6p3TXdhzQ6mzpRv3RfFRR4OAxrSeRLtrU2i0dTw/aLlYifQMZvdK5u1G7Lxs59eTkDqoR4FdrRKrNH1EZxVg3X5TRGEC/fSD93riEQ1v3ODizH89NmN4T6wSX0KYNTvcokj6RjeWZdY7PTQwoR7VyVB/zSew77TiQC66bTsBkCUBKQgQmSJmgy0SfufUkTFZ76IFFVaINN/qdHhmNcJKay2pwWblP9LagVgzGgdFIjJwkhe6gNmauReoXdWjqL33i9lnb04OmSiPaEIKUN5xSq81FWP1OLvWVm+hwbq8C2cyuD7D7bKvtGdgz7jVERQeQgdSh6pwtQOuqrYaIdcPXLHNMlzUXYpl1MKZjgxEdQv6SHllZegRZKDh6n9rQSc4iIxul30+CISsDUS8p71ahOqeLgKFT6EY8a2o3Df6Kbd4jO/yDqG+7tT2WznaU7/8Aaw+3qAKNb6vpb1FgeUN+TmMRdrmwGXd4iQPRFiQm46U4+ZKcSv5x1Sn8+5nj5HWLcHaXXt4b3SgGaPFHbPRCh45uowVVjS9gU34x6s5kwCBC/tYr+I6M/PrpL+m9Ite7HcYzNFCeKUbeEmHkLTDVy8jK0qUOFLpZMKzPwLHjpeqUOj1EuY1peuxRptjbYVAEYrFPHXRdTbsHqm9wuvq+U+vdrItQXVI+o/bUFGPPAiFox3UlsgrBOuXvFuDDV8S1WNjV6qIt8NIgUXacoiN/RL5XgBql3XnYJMp/b0StMnMhLKKz6DDRbe6mf/3a6iOPM4eRpdS3BW0iUvRUd33KOdFsxCEz1XeqHnnH1ffXFKchkupiaTSi3iHa9rc+75qM1xSJ+cZt5WyFBnOTmB3MikekwwNsx5mjTTQQByD2I6k7q641PNDvlIUwiMG0swb1Mky11BtR1Om47uDWHmi2cKBRtDsMe/4i7dJBdx4+aw1ratV5zYecw1GKuulzQt/eiVNG7e+cxJ4YLa1GjvQHcSb9LklG3sHDUj+25zg7ZgVC6WwyNUjnS/okpw9dGGLDPXWaVHx+MvaSTnTUhnTDu9hNOgxd/wkFNs7/S6xaX6Vvl5NtBpKotQEXKHjpOleJYrILXXAijsn2GPdEK3VtqyCno7xf0tyAMy+sxLFTVO6TCCVrYP62HZZB9n0vcSBGXFPsfTx+GqQICHIqzgvdTovnLtdAkgrl3REKdfTyL8gAZy1HbKi/FPYleGUaYueQcfnNwzrFWDYilKbnt26oUYS5bDv0iynKWZyA9GrH9JUYlD76hCLGCe0o3Z+NVSJVEKVOdV0GYgPhYX3dsiQRCXNFZwnAxEEv7t7G366pkZRpXyoilHZTexwGkwDMXxqGKbor2J+sRoCryroRmZSBdeHOnbR//aK3G5er85H5pkyfLE5C5jn1PU+Sjm9blKgyOGYJ5kl96F4KwbxfqK8fOKRGfo91a0IwgQZpXaAyle9Dl+lLHOokJ/9WBKZLmcptXFdSJAsRGfk8dC4zu57olwbZmHgaYLpRVNVAdtQD8zlxDkFspOfrDrZ2xyN0pit78qQuNi6XFaFWrPm84bzmcwX/fVGcX4Nh5RyyC0XoxCREZmYghezyu+pCpP8hif6eAanZNKPRpoDTfg9DJNXzQiXOiBnz1SaYWl2ny/qsgfyTHvamPj1mIz6iEdoiAp2p0UiJdrU+9HMsjJyjPGsEzkCQ3ezkuxY1BR1liEaQbM+E+fPUQb9PxyadbIxDkIj4Xk1DjagPBR8u1TAAXuJAfJDVrCb/Zi0ukIvlRqyNUZ2CdSHdGVdrIGO8ZllnSGhRW3h8BIJcdmaV4Fdcd8qx49TBMPQtx6hKHLbIigLGVxORJWYexsM4lqFHcK+Y6n6MUpcd8TZuUZ1c4Wl9nxy30dWnLuR0lKmPiKLzZJRoO9T0FEWGR+rQQe3+S7kqrynPw7aV6sDrTH/67ajMxuq9NbBE71Q6Xc3xT7HJIf3lTP+6G4gpM3+uRoUV1WhS8hyka4o0v1HWJqi9g1pwl1FxoB5RC/o6S50yatCAKlOGHfWVOO2wBuKJfomZCxFLry0UjV+4pkb+0+NX9LNV2DW2dp9A/VXhKJzxsC4CkVrV1nz67Od/GT/7pTg3oLSkpZ8UFjF1HhI+O0wRfylOHdyIBHLg5rOF2EzvUfHHvCg9OeV2VNW2yk0KLtJlHnC9Ihe7zJMQFS5mIifxp4JLAwZ0Xc11DvbwIulOUFVKMyv5xq76f1O3Dwf6Y6wi0QjBL/v9joM9A9vvGHl+5vjkbEbF35UgZuZ4/CalCOdT5A0r3fivBvFdENtCiLoGskJeafyA84dSkVYhL0cUZIQ0yIndIoOZ/tozO5qm1BWFqD/6Ryw7KoUKdnv6xcL1Ftv3amxMxgSnHJQyuFgakBmr5Rbt9667q69YsNMW41Tq96cibD+9ENGYUwQ2MDqMVWKDmziQFocDikxrUwBC39AjqNGI8l3pdCg3JVp9u9ElBuLWfCzT56u3CF3gHMSmb6RZiGe7ge52qamh+i/SEfaF8rJfBtJdRwU9n/32eWmxWKk+E8MeGgjnhiFxqhGHREpjueOzCoqJRqhIXXiIdQvrGldbWEPwu5hJKC5rQc47cciRUkc80a+AIvaEaByiaLw4s5UG0hnY5LCl2wN7CFmCdbOMyGmtw5Z36tRCCtrf8bQuNCBXinRuf6ngSQiPDYPOXIf6I/Qs7L6uFbq+QAZbfeur8ZNAO0ccvAwp8yuxgxzAPrKzfrdIK2sg9hkSW32vm/ZiM9nD9Jjt2JT6Av7+1rvYTZ93KPRzpzSWuolkt7wSaPagW6BHZEELTOYirNIXybsCkfbSY7a88pSB+76K94Trvv7KYvncam0bgg01VZWE1H9xWkV3iYvU10jBXINS0dHfju87/fWUaXpk5abBMHdSP+snrvBH0NwIbMvfiViH3TkhSNwbR52hn9TUk6ivx9DgtGUjYmcFuJxm6+Ym4/NP4hDZz33hbCLf6hsVWjpbULojG+UeLtgHxZCz0XSrC0BwaBw+jHEVyrnRnTv85iDhIA0moTOs6ZUJU2Yhdv2n+OfUkH7a6Ar3W1hnJ/0J2xbNsLYpND4DBU5fXHWvX0lwBAykDvPVdpe7vdziNwOxuZ9i29IQzKao2RUe1cW65rMShgX9fE74RhwXnzPH874yYUoIDJs/xd54e12SM4omZ9TZDnNn352I7rBQQLd5VwPapkbjY/Fs/Z5H1MfrEKm7g9LMbNvOLAV/OWO01cVqD1PCsI1mSba+748p02g2lPU59rhMhw2EZ/brfd9Ef9SDnh7HqavPmHEY42fnPHofoOdhf/vj/OCnc96x9Yjecp/+9ccY6zbf4cHzb6JTR9+6FpmNA31D2JsYYfVtKcGqtJNoeyURX+VGY7qIxHupDTvEGoY/Ej4rRcpcteioopmi0Q2VsDyzXzN4NoidZct2NSF082FkLRnabN67eNq/DjA0vG/BgGYizusaDs5D4De2Txnb0Xe7r2im+p2Q4XUeg+LqNyhtHHzO+Jkx0urb26Pmk8dRRKXFHp1XYBZZpKl6/E5uQBtdDLCFdVTTjjNlTbAMavswMxS8bwYyyvhRv4XFPFGun83HgcMNqL+hfn9AF/g8QhfEI2VNhLobhWG8Fu+cgbADecqwA2EYZrQysve8MgzDMM8MdiAMwzDMkHDrQMaPe06+YgYL645hmNGMWwfy+qLfylfMYGHdMQwzmnHrQLakJSB+6SKOpgeB0JXQmdAdwzDMaMXtLiyGYRiGcQUvojMMwzBDQnEgPj5e+/1shmEYxkvxFc7D19dXcSKPHo3UXyFkGIZhhhurA3lurA53u/v5fzcYhmEYxgnyHb4YM2YMxul0+N/bd9B5t4tnIgzDMIxbfHp7ex/TAYvFgvsPLLgnz4+d/vtYhmEYhrHH5xFNN4SzEE7k4cOHylkcJFcKsCNhGIZhXOEjvIdwEtohHIf2mmEYhmFcA/w/edd336+zMqAAAAAASUVORK5CYII=;imageBorder=default;" vertex="1" parent="1">
          <mxGeometry x="39.59000000000002" y="350" width="311.16" height="35" as="geometry" />
        </mxCell>
        <mxCell id="5SupTR_W5KZlv2ZlH3EO-40" style="edgeStyle=orthogonalEdgeStyle;shape=flexArrow;rounded=0;orthogonalLoop=1;jettySize=auto;html=1;exitX=1;exitY=0.5;exitDx=0;exitDy=0;entryX=0.25;entryY=0;entryDx=0;entryDy=0;fontSize=25;fillColor=#dae8fc;strokeColor=#6c8ebf;" edge="1" parent="1" source="5SupTR_W5KZlv2ZlH3EO-8" target="5SupTR_W5KZlv2ZlH3EO-26">
          <mxGeometry relative="1" as="geometry">
            <Array as="points">
              <mxPoint x="530" y="438" />
              <mxPoint x="530" y="148" />
              <mxPoint x="685" y="148" />
            </Array>
          </mxGeometry>
        </mxCell>
        <mxCell id="5SupTR_W5KZlv2ZlH3EO-8" value="" style="shape=image;verticalLabelPosition=bottom;labelBackgroundColor=default;verticalAlign=top;aspect=fixed;imageAspect=0;image=data:image/png,iVBORw0KGgoAAAANSUhEUgAAAXcAAAAsCAYAAACe/vh+AAAAAXNSR0IArs4c6QAAAARnQU1BAACxjwv8YQUAAAAJcEhZcwAADsMAAA7DAcdvqGQAAA8PSURBVHhe7Z0NTFRXFsf/gIxFNFh27dqtldCssWtgS2zalE0pjbMYqQbDhxWtBVvFFLA72qxaC7GsC2q1FdkKbEVTwa5C+VoJ7hAmY0JpFkK3xMaJu5RGVhdXY7coK1SdEd1737tvvoeZsQgz9PyS53vvvgtz7nn3/t95517GgHsyULa7d++ajwmCIAj/JICJOdPxexgZGcGdO3ekPd+4yHNI5AmCIPyPACbk97iYG41G3LptxE2xJ1EnCILwXwJYtH6PC/v3N2/h2o0h/PThmZgRGorAwABRhSAIgvA3Ann6hadjeMTOhT1sxnQSdoIgCD8nkKdfuMDzVAyP2AmCIAj/xyzufE8RO0EQxOQgkP9Dk6cEQRCTi4Bbt27dGx4exnf/G8IvIh4XxbbsLavCX0//TZp0JdwzLeQhvLTo19iakyFKCIIgxhcpch8NLux1p06TsHsB9xX3GfcdQRDEROBW3HnETtwf5DuCICYKt+JOEfv9Q74jCGKicCvuBEEQhP9B4k4QBDEJIXEnCIKYhJC4EwRBTEJI3AmCICYhvifum3fji79W2myn9ySKizJr9pQ71LFsu5Ev1Xodnzq9LrbabVgj1fNhLjYhW52Kl8t7RMF4cx2G4weQv6ISBlEyKi7tNcFQng21Oh35p66KMm8x4YKuEjvXF0F3RRT5NB767ooe+ctSoX6F1bspyh4oJnTvSUecugC6AVHkwFU0v5nK6ryD5gfi67HoD97Sj4b1rE0plegdEUUeYuxrR0W+BjubfoitXo6lMcCnxD3/Iya6CT8XZxZm/CodX3z0ujhjjPp1CR5+lYLPf+MCG4THj7OOMAfpS+eLsvHm32g70o62AZM4H40Hbe81nG1qgq5vGLdFiW/jje/GkYtaVOhMUCUsQXy4KPsRYPy8DqV9QNRKNeYFiUIPGTqjRVVHP4a8fCjYMv79wXfEnUXsy6VvPxhGV/kKxKjlbf+ZYekyHn8GZcnyocKNM1XmepZtC/4gXT2MVHPZabD7yriERqUseRc+kcp8lIHP0CANwlVYNleU+TKj2huMqOxy6PXVKFz6iCgjJGarUdhcD/2fMxEVIsoeIL2n6qQHcO7q56ASZePPePeH62hraodRFYespDmibPLj9rtlnl26Vhw9WHjUzsW9ryUdaSVTYf6CypHbeKeiGjHnLOVrdpdB81Qobnx1Aou2t4iKo8FTNPGIZOJ+8qV3UChKx4OuU0fFkXf0HlqH12tMyCqpQkaUKGQYSlKR3ZSI8tYkfFf0Lna2sVfFsIXI3b0JKfPFVzZ/242qPaU4ceY6hthACo98DllbsrBMuc4Y6mERXEkdWnt4HUFSAdo10cAVLba+chgdotgW9tn69bAySWJ0e8UJI3ZjOfYmWw3oLw8jbqsW6W8X4CctB1DJbVaFInZlHgrXzmcCdBal6gJUi+q2zMe2P+/CstnymZG1qXTfCTSz6N7I2h0Rk4i33s7EwlnydQyeRcO+w6j8sh8DRlEmSN9bj9ynPfGvvT3Mv7OfRKpmEzKenem57xzqOfHryFV0HyrD/lNncYGnbEJmIn5pLt7asBDhUvQpbFmyCeWz9NhTx+sxe6KS8H7RasybzutYMdCOna8cgC46B9q9alhfHug6joNH9eiQ+kMwVCoTjEbP/Xu5RoOXD/UjakMJyldaBPTCsWysOXoV8VuOoHDJTPf9gTNyHYa6o6io60S3OdK19Y/be23NuUqsebMJxrRd+DTb6q1S+Peg7p/oHVQ+x9Jme1utsdg9Fv1B+R1O+seC9Tj5YSKklyw39trjI5F7In7+MN9fwlcHrISdEzQVRetXINW+nDHjqVWOuXTr9I2/crMTzY3XgaczkWIz2hXO49TO7chnwsM1yjjYjeJ9elzml4Y6UZxRhApJ2DkmDPS1471NVrnqwXbszzmMBmth/yG4tdc91XsKUKrYbBxGx7EyNF+ULnlGXz00vE3SYOeYcOFMEzRvHha57GG07S9CcUcoMj+qR7u+Hp9u4AM9GMvyqiRhtzCKfx1g/r1yFhXb945xfvoqdG/9FhpJsEXRTRaB1hVhRX677X1jD8XsY0o9Zo+hnj0Q+qVL1lzW1UFnDEVWhq2wD+nY79xeD525P3Bhlw4suPHvowlJiGelhho9eqXrjJEetDXyh2MSMhOY0HkEa2P+G8g+1G4l7Ha4vdfWmNDdpMUFRCNrpW26sPfI7yT/WoRyLHhQ/cF7e31E3JUE+MN4LFUcMsEvq5UF+++ttehucZxYnawMtbWgwRiMlKQXbAahhR40d/0Mm8uq0N6ah3T+ft13Hv9iHfvyqRPsZ3lusQDaViZirVUoWcIiTmMPdB1iQsg4JA9iVSTSN+bhk9pqSeykqJ0zOxF7+bm+AOlSAY8oZEFst48uGaPZG6WRf+7kRjd5eGZL1gesPfoq7H2eF/Tj8rd8H41c6XPLsW0BP+eRimKLErGwAVxTCwMT6oS32Ou+1O4SbOb1v9Wi7RyvwzDyQaHCDLf5CNf+tdgjtlYWkUr29uDCJbbz1HcO9ew4x96sDMzeWYkoqZV/Xl+VgwRmi7FLiw7JNwrB5vutz3tOKjFcuSbtzTCh1dUwwY9MQ4LNDexH67FuJpKhSHlb+M7sawUP/Bv+AtKTWD8bZNG/mDE0dmhROWib53bbH86dRGkXb3cc9n4s+qWN7zy81wrmdKHjHMNt8QSLiEnFjg9LRNstUbC9rTxaV+yxvG2MUX/wAHf22uMj4q7FJakvTsNPI6QCBhN8+0lPu4lUpzn3dYfFVT+FDcKGQ2fZIFyBlNhgUehI1OocOU0QtBC5Wn6TNyE2BPjuihyxGWoKkLg4FXGLM6BpEfMWCkww3t7NIq3p/ag+WIQ1K9IRt0yD4sY+EQl5gYf2umVJJjJieNojFDO8nui7hv9c4sJtgm5/NtRSu1l7bAZ6KJ5eGodw1Xkc5Ksm1KlYUzOMhHV5yI3nn2uLK/9iZBi9LWXIfyUDavY74havQ/7n8s+MJQPf9EhvClHJS7BQ+EP1WDQW/kI+vm0zufcb5G6IxnQmoKow6RXYgSHdCVQMsgfwq2o8KspkruEyFyG8gISER6ByOtnoiX/ZAyY5jYnVMCqbO1k/MsHwOd9HIyXB8zy3pd1piJ3rrD95YouF3ppKtPE5hpWOcwxRa3dj26I5uHGuHjvf1LDflY7lmkp02zw43TBO/YHjrb0+Iu4BKDwn9TBELi4XE6davJEsC7Z5UtWegGAET51mu03xnTni+0GJduLT1IgYZVY/aoHzATM1RBaq2Fd34aQkSpbNOrcZ/mwmCnnErj2CT/ISETXSj4aD76La6SC5hu+YTc7w1N6x4xqGHGxhDwTplYFHn0pEY9nklAuLUI+2Y4C1++MGuVzfUIIdq2VRtMeVfweaivD6Pj2MSbug57+j9n1stknp2OPad6MRPvcJSYwMjS3oFksWjX2d+OwbfsTa69XkK2s7e51HWCKWPe/4IFNJqnceX4s02EBHE05Jn6PgiX8Zc19ACjs26jrx5SU5Yn40bRUSvHhYW9pdh46LXMTt8dAWDk8XNjHteDoJiyNFmTXTI7Esr0QaJ/qPC7CZ+WbA0ATNfru0l+C/A446NLb94Sy+5is/BvvQsL/SMU/vpb1TxH7CCSjegsZfHkfy3Gl4JqsSX2SJC2aG8Y9OLdtbEu9yzn2VOFP4Hl9UZCOnUZz6Ff1oZgLEZ/VT4j3NUdoyL2kVYhsPo+PYO1h+TBRKWE28iElMRx7GdLu8ijTwjZ3IT1HyZVaTPm7tdZwM7TiYjbiD7MB6osgjVJgqPbevojQnFaVSmdImPgGbiIguLRr2aNgmXRQo9g5jiItkXxmWJ5bJlxiqsPlI0Wxi0bvdpJ4LbgzJ6Y6OQxrEHZIOXTKa7wYa2f05aP33AFpkq+V7Ik3uxsQhc5YWFd9qoVlhe68ikpMQGyZOPMC8DHCDs2WA0XgxeSaqanpQ/FoqikWpLZ74lzMTCRlJqPiyCVX5fdKqnM02y2I96A/RS5AbqUVxXzu2vtYuV5JQPsdTW4DLTTxF6Sq9ydfyZ+M9J8GMKizYNsoXPus9/jvEHZePlQnVsekPTyDqWXba1Y9i9lbp/B54Ya/Ad8LcwGBp4jSmRY7grZHTL+uQ/Re7GVWnOEnn+AsGPar5IFybhoX3uyxudiIKD+QgPWami3y9M/hqAzV2lO1Cis0yxmhk7ktFfLiLdMtY2OsxTDi2bkJKZKjTjqyKWY8/7k5Fgovr/EGQ8Kpjntc42IPqnUVo8HDyNiKZPQgU36pCERWbim3JzsJCN75zR9B8ZHzEorPYOQgXDZoeHomUje/jT9nRLtroDPfLAOet+z12sNd9pU2xaXkot15VwnDvX0GUGunMHYaL/XLE7O0y3qA5SDnwPnYsjcY8JlrO8MgW8xzDaqQ/79k9UIXNYX0kD7VbbFM44Us3oZD5R7kP1oxNfwhF/EbWt0Uaanp4NLJ2szEsnbnGlb0KPrMU0sxdE0wm29exgCkhmBJkJewjt2G64+ovCoIQpLJfWXOX/cgt9m8wpkwNtor9HzyeL4Vkg3D7G8jvehI7agu8epWdGPzM3p7jWJNTjwsLMvHpgSQ8yqOxEdaGnTxHGoyMD6qRFSNXnVS4WgY4yeErgJbv6UasWIL5Y8T3EtQsgrfPo9sIOydoqkMdy+a4ZJI3M0i6Nr7C7hUXP0N1l/c5ygnD3+wdMcmTxSEsOlLigsHzMPDMyKxEvCgWCk0uXC8DnNz0o7WmG0avlmBOPnwvcp9k3O8fMRFjz+XTZSg90omOK/L6aFXYI4h9Pg1ZG9SI8DyHRRB+AYn7A4bEnSCIicC/1w0SBEEQTiFxJwiCmIS4FfdpIQ+JI8JbyHcEQUwUbsX9pUW/FkeEt5DvCIKYKNyK+9acDKQtXURRqBdwX3Gfcd8RBEFMBG5XyxAEQRD+hxS5BwT47J/2EARBEPdBIBf2wMBASeDv3vXXL2UhCIIgrDGL+0NTVbgx7OKrdQmCIAi/gul6IKZMmYIQlQr/vXYdgzeGKIInCILwcwJGRkbusQ1GoxG3bhtxU+zv2f2vRwRBEIT/EHCXhelcyLnA37lzR9rzjZVLFUjkCYIg/I8AruxcwJWNi7pyTBAEQfgjwP8BWFfx5BdHBAAAAAAASUVORK5CYII=;imageBorder=default;" vertex="1" parent="1">
          <mxGeometry x="39.59" y="420" width="298.32" height="35" as="geometry" />
        </mxCell>
        <mxCell id="5SupTR_W5KZlv2ZlH3EO-41" style="edgeStyle=orthogonalEdgeStyle;shape=flexArrow;rounded=0;orthogonalLoop=1;jettySize=auto;html=1;exitX=1;exitY=0.5;exitDx=0;exitDy=0;entryX=0.25;entryY=1;entryDx=0;entryDy=0;fontSize=25;fillColor=#dae8fc;strokeColor=#6c8ebf;" edge="1" parent="1" source="5SupTR_W5KZlv2ZlH3EO-9" target="5SupTR_W5KZlv2ZlH3EO-26">
          <mxGeometry relative="1" as="geometry">
            <Array as="points">
              <mxPoint x="440" y="508" />
              <mxPoint x="440" y="310" />
              <mxPoint x="685" y="310" />
            </Array>
          </mxGeometry>
        </mxCell>
        <mxCell id="5SupTR_W5KZlv2ZlH3EO-9" value="" style="shape=image;verticalLabelPosition=bottom;labelBackgroundColor=default;verticalAlign=top;aspect=fixed;imageAspect=0;image=data:image/png,iVBORw0KGgoAAAANSUhEUgAAAWQAAAAtCAYAAACZOxEwAAAAAXNSR0IArs4c6QAAAARnQU1BAACxjwv8YQUAAAAJcEhZcwAADsMAAA7DAcdvqGQAAA/BSURBVHhe7Z0PTFVXnse/gDyLYFA6du2fKXEyxlkDM4RmOr5JWTawNFIJDf+2aBU6Cm4Buw9NtSrEYV1QK61Khz+rQFuwg0/lz0Kwj0AeCWWyGF2JsxB2iI3ULlZjR9QVql5E95x7z4X3l/ceRXi4v09yvfeec957v3vOud/zO79zL3o8VoC6PXr0aPyYIAiCmDk8mAAz7X2MsbExPHz4UN7zjQszh4SZIAhiZvBg4vuYC7AkSbj/QMI9sSchJgiCmFk8mFf8mIvxD/fu49bdYfxk8SIs9PWFp6eHKEIQBEHMBJ48NMFDFdwz5mLsv9CPxJggCGIW8OShCS7KPEzBPWOCIAhidhgXZL4nz5ggCGL28OT/0AIeQRDE7ONx//79xyMjI7j5v8P4eeBPRbI5B0ur8WX7f8gLf4RjFvg8gzcifosdmSkihSAIwjGyhzwZXIxrz7STGLsAryteZ7zuCIIgnMWhIHPPmJgaVHcEQbiCQ0Emz3jqUN0RBOEKDgWZIAiCmBlIkAmCINwEEmSCIAg3gQSZIAjCTSBBJgiCcBMcvhjy6pp3xNEMsXU/zke9IE4U7v6XHhE7DeIMWH+gDLpfLhBnlnyHxjd2IR8bcerLcCwTqVaM9KEo6UN8IU6fFOfOfC6OpsC3Tcj4XRVuJu7DqYwVInEmuY3ems+hb1iM5NOpCBKpdrFr7yh6y/4Zutpb0G77BPlrnhPprjCKK201qDo5CG1+DqKWimS3xcm6u25EblopuvxjUVTByvmI9CfGKLoPbICu7RfYczoPUQEi2a1w3NZDXTUormxBx8AIJI0vgl5bi21borHcXxSQcbH/2kEa6ERVZS2uvZqDPbFT6bvO41Yecu7RKisx5iz8ZTLOH90ozhiTvurt5Gvgbv+2OLtxamrQi5eQvGY2xJjzP+io7ETH0Kg4n4wnbe8t9DQ1oY3dgA9EinvjSt3NIN8aUN42Ck3UaoS7pRhzJm/r4bYCJOXWyfkST5BG0NtegY2f98j5E0xPGwxfNKC6axDDYyLhCeI+gsw84zdlB30E58qSEBKpbIcujsjZ+OmvURqnHKrcvVg9Xm5i245/lXMrkDCe1o4BOe0qGtS0uH1P3Dv+UQx9hXr5xlmLmJdFmjszqb3eCMoog9Gon6J3/BSzNBL5zXUw/nEmvGPg0plaedDMWrcKGpE2txjBhfZuJsSLkP6xHp3GOnS26tH4hzTEuO0A4zxuE7Lg3jEX5IGWZCQWzcf4H54be4Dd5XqE9E2kr99fCt2vfHH3zycQsatFFJwMNXxxFY1v7Ea+SJ0JphqyuHRsEzaeHEV6UTVSTOZavUUJyGiKRllrLG4W/B57O24A/qHI2p+N+BXiz6d+343qAyU4cfE2hpkYBixbhfTt6YhR8xnD/cxTKqpFaz8vI4jNQ6cumE2jDdjxdgW6RLI57LeNaVbTv8ntFScM7ZYyHIwzEeULFQjbYUDyzjw823IEVdxmNgXVvpWD/HdWMNHoQUlkHvSiuDkr8MEf9yFGTGkldk0lhSfQLHtO3ggMica2nakIXaLk404P6gsrUHVhEEOyazVB8sE6ZL3iTP1a2sPqd+kvkKDLRsqri5yvO6tyNup17Aa6j5Xi0JkeXLnHzn0WIXxNFrZtDkWAFy8gbFmdjbIlRhyo5eWYPUGx+KhgHZb78TImDHVi79tH0BacCcPBSMjZwo5nExPw3Zk6dCMYe/b8Bh17K9Ax9hzS93+ClBBv+eMYHkTX8QrmYf8Fl+4Ir3NlGhPDaHAtHGrYjTeL+5V0DrM3VJuIbbpoBKq23BlAc3EJ9F0DyjXJqNfuTFurIZdR+L2SgEJdEoJeFPapONkGjuy17LumqP1Y/Q7Tfq1+Tu1TnKGuKhwqNqLruvDqGVb3AsNNPORovLCY76/iz0dMxJjjNR8FaUlIsExnLPzVWpz/ssp8Mw1tzFXunUVzw23glVTEWyqfzGWc2bsLuUwseONKd7pxuNCIazxr+CwOpxSgXBZjziiGBjrxYXYB2q7LCeym6MShzArUm4rxj8GhvY7RH8hDiWozm4J2HS9F87dylnMM1EHHr0mdxvI45MUm6N6rQK9844+g41ABDnf5IvUo86qYZ3VqMw+teCMmp3r8xlGYpH6tYPV7vQfluw6iWa3faeEG2rbxuLsQY8692+io5dP1TvN2YwNZxnG1HLOnt46J+KCcZcq1tlq0Sb5ITxFibEJzLRNj/vl7Pdi7i4kxP5ZuoPzMBaU+x/pRnabDDmbPuBg7gtnbzUMJlWoogbXBgffxYbupGLuKN0I3pCKczSaGL9QhIyUZkfG7UdLQg6EfG1Kwsnea6KvCu7lN6DARY3u4iSCrAd3FeDFBHDKRLj2tiOx/tp5Gd0sV2g9Ei7ynm+GOFtRL3oiP/TurG0ehH83n/gZbS6vZdC0HyXzuOXAZ37BOfu3MCfZZIOitPBha+XSuGkWrmWcn9aOti3l7HGlYuaE1y5C8JQdfnBZTP+4dc5ZG4yA/N+YhWU7gXoUiYp02vOPJ7A3SKZ9r3OIgrsxsSf+YXY+xGgdf4wmDuPY93wcjS/7dMnywkp9zT0m1RfWOmdd08jSbinsjalsZjPJ1F2ErL/+9AR19vAxD4kKiwUKHc3X79Tthj9haK5Ev29uPK1fZztm6sypnQR+bwfQye5dEo+i08nljdSaimC3SOQO65LpR8R5vb2POKjml9/oteT8OE9S2k0yklyUiytaguTIVpxq3I54fs98saxR2se/hfWW4vRbl7Dc1Qevwqdpf+Ca8Y05A3L6JdG7vHxKwnKVLX7MZiVxiFNIPfM/sXZ2GoqOVSluN14szbc14MRr5jZX4dHssol72ZgNmP/TFeUhKqcElLspOtoEjey37Lvdo1bKWnu2ksH53k++XsOvbvg+nmu1/h5sIsgFX5f6zAD8JlBMYTKQtF94sFvNsxpA3VYjcOQq7ceqPsRF6WRLitRZTMROC1mUqU2gvNp028AbOhpZ5DTevK55R78k8RL+egLDXU6BrEXF4FXbD7dwfi3C/QdaRC7A+KRlhMTocbhhwOIJb4aS9DlmdyqbGPCTgi4UuxwJv4burXGxH0XYoA5HydbPrUYVYxhevrAlDgOYyitNYfmQC1p8cQdSmHGSFT4RyVOzVL8ZGcKmlFLlvpyCSfUfY65uQ+yflM9PJ0Nf9skceFLcaoaI+NC8GI/TnyvEDM2/wH5C1ORh+XqyMvzzVtGK47QTK77BBc0MknhdppmgjVuF5P18lrqz9DYIsRtZv+hWvMSaZiVaAnXa+3g197vtYH6PUb+R7dbgkshQWISo3B+msnb9pqYDunzaxtkpGRoEBV1ydqnktwnLWZ/Z8poexIhVaPlBdr0PrRZHvDA7tnSZC1uLTLWEIkv6CksLd+Ef2e9yrrz7HZpUWuIkgeyC/j7sX7L5+vUws3hnwbpwisuMLe5Z4eMN7/gLzbZ77rFNOBanLgKo7QHhiJALlOKFtgla+JI7Mme+jiIt2wz40ykIysZmOyAGvpiKfezqGSnyRE42gsUHUF/8eejMRU7mFm8wmWzhr7/TBPDYrW5iIywLii/idRcLrmtiUcMQgWj/vxBC77s/qlXRjfRH2rFOEzBJ79TvUVICNhUZIsftg5N9x+iNsNQt3WGK/7iYj4OWfyeLY29CCbsW9hDRwFl99zY/Y9bq0AMiuvZYJqn80Yl6zHnyc4QVmD6dZz0TL1lMLYz0o+V0BSnp+hm3co2/V49S/RMoepxlLQpHycSXz5vVoPJqNFDbA8CcktteYxHLHsdXWPajOrEJb3yAkMShp/F/CcnmdwBsam33QRhs4a68Jfx2yo0OMC32XZWdmqL0Uh6yWtXwRGJeNsnp2vzUXoWwzG/yYV1++qwQdFnbNE/tZx+PwdjT8bQ3iXl6AX6dX4Xy6yBhnBP99lj+LPBFIVmLIa8WZyg84X56BzAZxOqcYRDMTDUkThvjwRSLNNZbHroW2oQJdx3fjzeMiUcZkAUwspFmzGH4WnpGGq4J0FrnxaixpYlHEsb3WizRdxRkIK2YHJotBzqHBfHmsvYGSzASUyGnqNfFFwGgEsql8/QEd2+RMgWrvCIa5sA2U4s3oUiWLofFfgXhdNvOSnZuC3h1WQgFdx3QIOyYf2mWyurNaUGIOSEak0ibyYlBIGFKXGFD+vQG6JPO2CoyLhdbsedvJkf5Ui5IBNshsZoIzxUEzICIW8WWFqO+twcakGpHKUNtRGoHEFUkyQhdjVPKssL9o96y/6UAxWVuzNuhvQvl7Nlbb2Mzv70XUTcVuGzhlr0DU2aWa9xEmLl1dkAtYsYLNONhspr0Qke1KniXWbS3QsIGV22eC+7iTnt7y4l1Ii+Ipm6KEJjYh498tVvVsYiPUMVfoNULPb5x3EhE61UeglkYj/0gmkkMW2Yk/24I/kRCJPaX7EG/2yFowUgsTEG5vijod9joNm+7uyEb8MjGttkATkoZP9icgyk4+v6GjNljHseX4494C1Du5gMg9nSy1bvkLCdoEfBBn6/UjB3XnCK8VSDmah63alxAgLsgvYBnit3yEf8sItnONtriNjiZl0EyPte31O4XfKmytzkGWdhkCbbW1zyok72TTcn/lev0CgpG8PQEx8pl9lHIfoTDR1LbJ2prVa0U20kOYGIpMjf9zCF+TiS8qUi0GnEnawAV7A9ZkIz9ioh3MWJmIAtav5DzeHyLScNBGPzND9Juiz7Kt7hv3e1Pv0ShGR82nRB7zfDDPy0SMxx5g9KG9JVUveGksn8h4xD5yn/3rjXnzvU187CeP84+9sRtn17vIPefOb1CZMsfs7a/B+sw6XOGLV0di8Ty/ccfYNezlMWBvNo3Ws5tcKfpU0VeF9cyblGbtbU/CFdwv4Mo8Zcu4sJkYc7zmW5WZ2Kwfj+OX6SXnzawYu8S3X0F/bhTPJ66dA2LMmGv2jo0qC5Y+zCNSx/I7l9HLZ5I2prpPB6PobjLgCvMU098iMZ4LuJ+H/JTxo/6WBTGtXGsvRUnl2fGH8/lUV/taItI3R068uEAQswgJ8hOGBJkgCGeZ28+IEQRBPEWQIBMEQbgJDgV5gc8z4ohwFao7giBcwaEgvxHxW3FEuArVHUEQruBQkHdkpiBxTQR5ey7A64rXGa87giAIZ3H4lAVBEAQxM8gesoeH274uQRAE8f8GTy7Gnp6esig/ejRX/wgEQRDE3GdckJ+Zr8HdEft/Xo4gCIJ4sjAt9sS8efPgo9Hgr7du487dYfKUCYIgZgGPsbGxx2yDJEm4/0DCPbF/POl/tU8QBEFMNx6PmDvMxZeL8sOHD+U931i6XICEmSAIYmbw4GrMRVfduBCrxwRBEMTMIQuyOB4XYRJjgiCImQb4P7qPel/7A0NdAAAAAElFTkSuQmCC;imageBorder=default;" vertex="1" parent="1">
          <mxGeometry x="39.59" y="490" width="276.86" height="35" as="geometry" />
        </mxCell>
        <mxCell id="5SupTR_W5KZlv2ZlH3EO-10" value="Multicast Integration" style="rounded=1;whiteSpace=wrap;html=1;fontSize=17;fillColor=#647687;fontColor=#ffffff;strokeColor=#314354;" vertex="1" parent="1">
          <mxGeometry x="39.59" y="570" width="240" height="40" as="geometry" />
        </mxCell>
        <mxCell id="5SupTR_W5KZlv2ZlH3EO-42" style="edgeStyle=orthogonalEdgeStyle;shape=flexArrow;rounded=0;orthogonalLoop=1;jettySize=auto;html=1;entryX=0;entryY=1;entryDx=0;entryDy=0;fontSize=25;fillColor=#dae8fc;strokeColor=#6c8ebf;" edge="1" parent="1" source="5SupTR_W5KZlv2ZlH3EO-11" target="5SupTR_W5KZlv2ZlH3EO-26">
          <mxGeometry relative="1" as="geometry">
            <Array as="points">
              <mxPoint x="420" y="648" />
              <mxPoint x="420" y="550" />
              <mxPoint x="560" y="550" />
              <mxPoint x="560" y="248" />
            </Array>
          </mxGeometry>
        </mxCell>
        <mxCell id="5SupTR_W5KZlv2ZlH3EO-11" value="" style="shape=image;verticalLabelPosition=bottom;labelBackgroundColor=default;verticalAlign=top;aspect=fixed;imageAspect=0;image=data:image/png,iVBORw0KGgoAAAANSUhEUgAAAXEAAAAtCAYAAABYvFucAAAAAXNSR0IArs4c6QAAAARnQU1BAACxjwv8YQUAAAAJcEhZcwAADsMAAA7DAcdvqGQAABAYSURBVHhe7Z0NUFRXlsf/oLRBsDBkzJqJMwxTkzJlwQxFKhmZCuMWvVgQKSy+EjQGsiKOgG6jE/yCchgWlEhGYcJHVEgCySjKhysFaQu2qSKkFsdMKGvpcocyFaKD0TUjygoxPmyy9753HzRNd9MQYLqT86t6vvfOfTTn3fvu/5177qV1+4YBBt+p2+jo6NgxQRAE4bzIIs7Fmm8mkwkPHz6U93zjYs7hZQRBEITzIYs4F2su2pIk4esHEu6LPYk3QRCEc+PGBFwWcS7gX93/GnfuDeEHjy7FEi8vuLu7icsIgiAIZ8Sd/8NFnKdReATOBdxniTcJOEEQhAvgzlMmfONCzlMoPAInCIIgXAM5EldFnO8pAicIgnAdZBHn0CQmQRCE6+FmMpm+GRkZwfDwMG7/3xB+5vcjUTSRw+U1+KD9v+TJT2JqFns+ghfCfoXd6UnCQhAEMfuMReL24AJe39JOAj4NeF3xOuN1RxAEMVc4JOI8AidmBtUdQRBziUMiThH4zKG6IwhiLnFIxAmCIAjnhEScIAjChSERJwiCcGFIxAmCIFwYEnGCIAgXxqE/9nlu3aviaJ7YeQgfh/9QnCjc++9ahO3VizNgU2EFdD9fLM4s+QLnXtiHfGzGmQ/WwF9YJzF8GSUJr+N9cTpXXGx5VxwRBEHMLk4Xieccq54k4JwlP0/Ex8c2izOG3a8JcPArBFzhmwauNSFNG4cXK3qFYb65C+PJYuQkVMMoLHax6e8IjBVp0GoTkdNyS9imywiutlUjb0sB2m4Kk1PjYN3dNCAnKg7al9l194VtThlBd2EiQrW5aBsQJqdjum3dj8YtcQiNrcYVkzA5ykAPGgtysamiRxhmwj/u2XQuEWcR+Hp5IDCMixUJCNIq25FLw3IxfvQsymOUQ5V7l2rGrhvfsvDvcmkl4sZs7eiTbddxVrXFHJzzKPzbwTrbyZNMAFYgcd1KYZtv/oaOqk50DIyIc3vMtb930NPUhLa+YTwQFudmOnU3j1zT40TbCDThEVjjK2xOx/TaWvqoHmWsgwe8pMVTC4TRUfr+jKPtPbgqifMZ8Y97Np1KxHOeViLwvvMpSGtaDI9FynZqTwrOXuP2zdjWKF8yjpvH2HXjmweU72J0x4Ix23jLuqs2j+m29jwz8CEa5c62AVE/FjZnxq6/HghIq4DBUIv8dY8LGyGzXIv85gYY/pSMAE9hm0OutNTLL9qMjauhETbX5i46mjohaUKRGr1C2L4/OFFOPBLlZxLxrPd1/EfEfhRYvF6+efgVRt0XY4GwbzpUDt0vbHz3+d868Oxv3hYnKmp+/DrOvbAf+cI6H8w0J37leAo2nx5BakkNkgKEkWEsiWMvuUhUtEbjdsHvkNdxC/AJRsahTMSuFHXyZTdqCstw6tJdDDEB9fVfjdSsVESp5YyhXhaRldSjtZdfI4jORacukA3x9dj9ciW6hHki7HcbtsDMJRn7/ooTRsj2ChyOMRPyTyoRuluPxL25eOx8Maq5zxovhLyUjfxXVzKh6UEZG/rXissnshJ7/nQQUcuVM4ndU1nRKTSziEhi9+0XFIlde5MRvEwpxyAbOhdVovqTfgxYRF6JhxuQ8Ywj9WvpD6vf5U8jTpeJpOeWOl53k66zUq+mW+g+Xo4jLSxS5KkWz6VYsy4Du7YGw1eOQYQvEZmoWGZAYT2/jvkTEI03CjbiKW9+jRkDnch7uRhtgenQH9ZCLhZ+PBYfhy9aGtCNQBw48Et05FWiw/Q4Ug/9EUlBHvKPY6gfXe9Vskj+r7gyKEYYq7bg3JuR4EH9wNn9WF9qlkpj/gaHxGOXLhJ+qi+DfWguLUNtV59yTzLqvTve1mNcrsamHU2Q4g/iTNrEEeBAVzWOlBrQdZM/Dwrq8zfJV3PUfsCwfH41Po8jJDxVtIFj/qqfoT5jwC0070jD65fN7km0dal53dq6ZzOcKBJXE9SP4sk4cciFva4aH39Qjb+01qH7fDXaCyNF2Xec+xfQfPYu8EwyYi3VUuYztOTtQw4TGP5wSoPdOFpkwA1eNHQBR5MKcEIWcM4IBvo68XqmWb5usBNH0ivRaC7g34Yp/Z2a2sJclKk+S8NMLMrRzEZgDtPXAB2/J1nAOSO4eqkJuh2VItc8jI4jBTja5YXkYw3oNDTgzFbe6T0QlV0jOpeKnfqdBKvfmz04se8wmmc1H3oLbbv+DTpZmIXpPos66wuQkNM5sd3Yyy/tPfU65o+xgQl/v1xkzo22erRJXkhNEgJuRnM9E3D+8/d7kLePCTg/lm7hRMsnSn2aelGzRYfdzJ9xkZkC5m93eyU2V6n5ZtYGha/h9XZzAf82jKC7SY+r7MWT+pJFCo+J+7acJnSYCfhsIA3ektugsGmmczvWuVL1mtzWDtetwIlEXI/rd/h+MX7gJxsYTNgtJx8tJjSt5sRTKkWp6zLUcR6Nkgdio389qbMp9KL54j9hZ3kNOluzkcjHxX2f4XPWMW60nGI/y/ODudC3MrFqrUFJBIsgpV60dYkHTxpSREDjj8Tt2Xi/rlYWNTX6wPJIHObnhlwkygYeKSnC12klCrfnb4BO+blz26fIkzNfUv/A7sdQg8PPc0M/bnzJ94HIkH9vBfas4uc8OlF9UaMU1plP18HIBDl8VwUM8n2XYCe//ks9Oi7zaxgS7yAaLJkyj2C7fsf9EVtrFfJlf3tx9TrbOVp3k66z4DIbKRmZv8siUVKn/LyhJh3hzBfpoh5dct2oeIy1tyF7tWwx3pQ71DhMhNtOM2H3j0e4tRftqmScOZeFWH7MfmfFOeEX+xz+rAy11+ME+52agI14W31e+CaicI5vzMFxO/f3zTg8xezSp2zkI18xAukrvmf+RmxBybEqpa3G6sWRtjZjLIVnJb/P2vo23y9jn5nFovRm5XPUUeCYr4dFYMijb/n3sE3tBwz1+VU3fZZSv13X/pf9O01/7fBAUl41fkFxOPBmiaiXqT/DiUTcDfmXeQ9gz9jaCjGBqce2GEWYxyY3LbGWE1/oRLc1E1hnazzOIhf/BMSGiGGsFQI2pivD+wVsqK/nDZ6JEE/g9k0lAjOezkXk2jiErk2C7rxF/bFOuvdQNNZ496O2tACbEhIRGqXD0bN9049aHPR3SiKS2bCdpyu8sGTaE2538MV1LtAjaDuSBq183+x+VPGW8cIz60Lhq/kMpXwlgzYOm04PIzwlGxlrxtNMKrbqF6ZhXDlfjpyXk6BlnxG6NgU5Hyk/M5sMfNorR/4BMREIFvWheTIQwT9Tjh9MWIXxL8jYGgjvBewan0eFbSJDbadwYpC9aF/R4glhMyckbDWe8PZS8uQhv0SAxdv4814lmo5KZMLsa6Odb3ajNuc1bIpS6le7owFXRJHCUoTnZCOVtfPn5yuh+00Ka6tEpBWwaHoGQ8Irp6vRwfP7L1nJ7wdtwNvbQxEg/RVlRfvxIl8BFLsfNRfZiHEaDPUaUPbbNKyPVO4psuiCKJldAl49hD1hK3DvcgPydujkelmvq0b3hJf1ZJxK7dyOZskTmDwafzaVp1Fq8ElbHS4Z6rBL7tzD+J8L42vFOUt+sUFOt0zc1JeAayJ16VE9CKyJ18LPztxrwCrrkziLPBVBCnnlIM7J4jO+meeifZ9LRj6PqPRVeD87EgGmfjSW/g61E4RP5Q5uM5+s4ai/sweLDCf5woRfFh0vxO5Vo5jxTUmV9KP13U4MsPt+p1GxGxpLcGCjIn6W2KrfgaYCbC4yQIo+CAP/jLo3sHNCKsYS23VnD98f/1QWJuPZ8+gWSwGlvgv48FN+xO53WpOg7N7ZUB0+kYh6fvILyxF+yPzhNNcyYba24sbUg7J/LUBZz0+xi48cWmtx5vdaORKfwLJgJP2hio0aanHuWCaS2EvJ2F6JrJPW8tPW2lrAU3hNLDh5Jhprrf4xiBf8YjJR0cie8eYSVGxlL6nBXpzYV4YOa585cBdDlssTb+qRl16O2oeReItH8ryvsJelbez4yzBeZgEWDwJOl6PMsp95+yMqu0Tus4Z3crGTtdOAsQm6IxapMwsWir1z4O6Bgi0J+P2uYlyKeFIYFXjaJPS3H2CBZhGm/m9AraRhXIZ+NDOh4TPtsWuWCtv0eCp6A0LOVqLrvf1Y/54wyphNkojJxMk8Cm+LCEzDlUS6gJxYdbLCfAJuKn8nT/x0laYhtJQdmE2IOYYGi+Sw4xbK0uNQJtvUe+IToZHwu6hHY6GObXKhQPV3GENcDPvKWVRVrhQxND4rEavLZNG4Y6tm7g0paYqu4zqEHpcPbWKv7iZPrOmRplXaRJ4ACwpF8jI9Tnyphy5hYlv5xUQjxEecOMDYErytM1iCJ/ANi0ZsRREajSexOeGksDLUdpSGIWcEJAN0UQalbBK2JwIf8zF/udhra/kEN5p42tB2ytHmxKWGvQDNw3Y+emE76aNiNnItVmzqxOb9r/B3fm6sxotrq+Ui69j39yergoGmbhjfZc+M1XUO6kSnODVD4+Mh+2cLp8s7uC1cDI/irEl57l/v+U94LBoX8Pd3p0y6ZnxLwbazynXjqGvG1TXkTorRgFre2V6NR/BMl5stj0R+cToSg5bayKdbg6/k0OJA+UHETlgeGIjkojissTV8ng1/HYYNxXdnItZfDPkt0ARtwR8PxSHcRjnvVOGvTM7LSyw6q80rQKODk6g8ustQ65YJQkBIHPbEWAsFp6i7qViwEknHWEQWsgK+4oa8ff0Ru/0NvJUWaLdjT2SWluB5r8bOmmxkhPjDz1pbe65G4t5QBDDR4Xj7BiIxKw5R8pltlOveQFG8uW/223o8v78Ric87WL+irUreyZz4rAZtwFuvBFq/J/8I7Bsr46u8gpGRFgkmyRbY99c7LBX5YSuUZ4avMIrPxoEIucgmGp8V7HnNRl2W/aWgzvln998xHF9iyDrbvm3Iufg0DtTlInzaeeH5xsX87T2JTekNuMon8Iqj8QSPSE3sHvJ4TtuDDfFrkRqkXPqdws4SPFdlqK0A6wu7EZJVhfyImY1Yvys4XST+vebah6i9OIIn4je4gIAzXM1f04gyaevJIjc19zn4GYx8xL0sEv9sL9XpsthZguey9KP1dDckn2gkh3+/BZxDkfg8QF+A5TzcaC9HWdWFsT/+kP9w4/l4pG7Vjv8xCkG4ECTi8wCJOEEQcwWlUwiCIFwYh0R8secj4oiYLlR3BEHMJQ6J+AthvxJHxHShuiMIYi5xSMR3pychfl0YRZXTgNcVrzNedwRBEHOFQxObBEEQhHMyFom7uU35t+wEQRCEkyGLOBdwd3d3eT866rJfOkIQBPG9w50LtyrijyzS4N6wja98JQiCIJwOORLnAr5w4UJ4ajT4+527GLw3RBE5QRCEC+D2DWN0dBQmkwmSJOHrBxLuiz0rEpcRBEEQzogs4lys+caF/OHDh/Keb1zcObyMIAiCcD5kEecHqpDzjYu3ekwQBEE4L2MirqKekoATBEE4O8D/A1oVtqzSBjHBAAAAAElFTkSuQmCC;imageBorder=default;" vertex="1" parent="1">
          <mxGeometry x="39.59000000000002" y="630" width="286.96" height="35" as="geometry" />
        </mxCell>
        <mxCell id="5SupTR_W5KZlv2ZlH3EO-12" value="Usage Integration" style="rounded=1;whiteSpace=wrap;html=1;fontSize=17;fillColor=#647687;fontColor=#ffffff;strokeColor=#314354;" vertex="1" parent="1">
          <mxGeometry x="39.59" y="710" width="240" height="40" as="geometry" />
        </mxCell>
        <mxCell id="5SupTR_W5KZlv2ZlH3EO-34" style="edgeStyle=orthogonalEdgeStyle;shape=flexArrow;rounded=0;orthogonalLoop=1;jettySize=auto;html=1;exitX=1;exitY=0.5;exitDx=0;exitDy=0;entryX=0;entryY=0.5;entryDx=0;entryDy=0;fontSize=25;fillColor=#ffe6cc;strokeColor=#d79b00;" edge="1" parent="1" source="5SupTR_W5KZlv2ZlH3EO-13" target="5SupTR_W5KZlv2ZlH3EO-28">
          <mxGeometry relative="1" as="geometry">
            <Array as="points">
              <mxPoint x="440" y="788" />
              <mxPoint x="440" y="608" />
            </Array>
          </mxGeometry>
        </mxCell>
        <mxCell id="5SupTR_W5KZlv2ZlH3EO-13" value="" style="shape=image;verticalLabelPosition=bottom;labelBackgroundColor=default;verticalAlign=top;aspect=fixed;imageAspect=0;image=data:image/png,iVBORw0KGgoAAAANSUhEUgAAAYcAAAAqCAYAAABY65f6AAAAAXNSR0IArs4c6QAAAARnQU1BAACxjwv8YQUAAAAJcEhZcwAADsMAAA7DAcdvqGQAAA/2SURBVHhe7Z0PUFRHnse/gIxBsDDsuqfZJCypeOxZcEthbUq2wnHlHJYECos/bkajkFWxApgDvcWoUC7rgbKaVbgVuAhmBbM4iuBJ4Q4lN1YRtg6KXCi3oLxlScnq4emZFeUcNL4RuO73eob5xzDjIpmJv0/V87336x6m+/e6f7/u/vU8fcbHxyfZgSdPnoCf+TExMQHO5OSkfCYIgiCeL3wkSZpkB756LOGROJNTIAiCeL7xefjw4eTDR1/h3gMDvv3iIiwMDISvr49IJgiCIJ5HfPlyEp8xcMcQvDCIHANBEAQBXx5f4EtJfMZAEARBEBzZOfAYA80YCIIgCBO+FHwmCIIgbPG5e/fu5N3/M+D10FeEyJpDVfX47eX/AA9aEzOzIOAFvLXqR9iVkyEkBEEQ3oevODuEO4ZzFy+TY3ADriuuM647giAIb8Wpc+AzBuLpIN0RBOHNOHUONGN4ekh3BEF4M06dA0EQBPF8Qs6BIAiCsIOcA0EQBGEHOQeCIAjCDnIOBEEQhB2e5Rx2HMRnv62zOi6XJYhEhY1l1XZ5po6DKJJzbcZZh+niaPwAG+V8HsyNFmSr0/Dj6gEhmGvuo7+hHEXr6tAvJE6ZtrxG9FdnQ63WoOjiHSFzFyOut9dh/9ZStN8WIo/GRd3d1qMoKQ3qd1i+R0L2TDGit0yDWHUx2keEyOsZRvPWNMSm1mFwXIjmFM9qm9JQJ2qK8rC/5Wn72hQe4xyKPmJGO/4lcTfFwr/V4LOPNos7htPXfbj4KhCPf2MI68QNDcywvAxNYriQzTX/jY4TnegYMYp7Zzzr8t5DX0sL2ofG8FhIPBt3dDeH3NChpt0IVfwaxIUImZcj/e4cKoeAiLfVWOYnhHOKZ7VNwxUd6ruGYZgFR+kZzoHNGNbKb+8YQ0/1OkSplePIlTE5Ga/8EFUpyqWJB1fqzfmmjgL8s5xaizSz7DJY22HcxHmTLOUAPpFlHsrIp2iWO/F6JL0qZJ6M0/L6IyK7Gnq9FiWJ3xEyQmaJGiWtTdD/JhMRAUL2DBm8eE524LkbVkIlZN7NfXS0dEJSxSIr+WUhI2YLp+9WeiPxXXH1bOGzBu4chto0SK+YD/MLYscfY2+NFlFXp+QbD1Yh7weBePD701i1p01kdAZfYopDGHMOF97aixIhnQt6Lp4UV+4xeHwLNp8xIquiHhkRQsjor0hDdksCqi8l427pz7C/g00dg6ORezAfqeHiletf9qK+rBKnr9yHgRnmkLCVyCrIQpIpnWEYYCPIinO4NMDzCJKL0ZkXCdzWYdc7tegSYmvYd+u3wqJIMs7LK24YMdurcSjFwkF8XovYXTpodhfjW23lqONlVgUi5u1ClLwbzgxYHyrVxdCK7NaE44PfHEDSEuVOYnWqPHwarWwEJ7F6h0YlYOfuTEQvVtIx2ofmw7Wo+3wYI5KQCTSHmpC7whX92paH6XfJ95GWl4+MNxa5rju7fA70On4HvcercORiH67zJaeARYhLzMXObdEIkUfIoixr8lG9WI+yczwfK09EMj4s3YBlQTyPBSOd2P9OOdojc6A7pIYp2fSMTDoA7qD1/Wz84qq1fke66nDkmB5dt7l+FSyf58j5vVh7zGJJkZU3OiYdO/MSEGr6shudqKw4iVa5bVpi8V0utF8zV+uw8f0WSOkHcDbbZsZqGEbXqVo2U/oDBkfFDG75Vlz4VQLkSdNfrF8X26Z41mC6Kln27yjY3YRe9nciEvNRmrdS/i6XdMeQmP60FQ1ounrH3IZNz8C2r1li+Zyc9n0bPGDmkICXXuTnm/h9uYVj4PjNR+nWdUizlTMW/mC9fSzBcvnJW3nUjdbz94EVmUi1tcIy13Bx/x4UMcPF24c02oujh/W4xZMM3TiaUYoac+czYmSoE7/It1gPHe3EkZxaNFs2jr+EGcs7M9qyYlSayiyNsU5dhdYbcpJrDDUhj9dJdgwcI65faUHe+7ViLX8MHUdKcbQrEJkfNaFT34Sz27gx8UdSYb0wiiac6NcOpt/bfajZcwits7refAftO/8RebJBEqJHbJR8rhTrijqtnxtzqtmnTPlYefqbmMEblpMsudV+Du1SILIyphyDyzAj/F5RCzosHMOMsPL2Xq7F5hN9QjAE7a5yaIdWoLSZPYNL9ahYww3+IuRWCUPqSvs1Y0Rviw7XEYmst20cw/gA6rfmYRfTn9kxWDH7+p2Jz3vqUFbAHQO/M6L/IhsMdU2z7GinOwZ7Bpt/Us50M+UY3MbNvu8BzsEUAHgR300Tl8xhVDUqBv8/LzWit80+MP1NxdDRhmbJH6nJfzdNJx5Aa89fYUdVPetghdDw9YGha/gTa3S3Lp5mn+Xrr8XQXbLogNIA2rtEgEoyKA1DFQbN9kJ80qiVjaV55LAkAYf4vb4YGlnAR7WKQe10MGtwVt6IPOVzF7bPEIdgZcn6JauPvh6H3uSCYdz6kp8jkSt/bzU+WM7v+YjMVBbTqJYZiTON6GeGPn5nNfRyvSuwg+f/UoeOqzwPQ+IdUYWFM66nTK/fqfKI49IJlMjlHcD1m+zkqu7s8tlwlY3u+ll5FyegolH5vL4+B/GsLFKPDl2ybkywUah43vrClbKk//Y9+WyGGcv2M8yghaUj/mkcONPdXX5ezOpfwEbprUqZLGeBISkHRD1FeX+VhmVMLn3BZmpyDgkSN2pBqmmXtFxqvybMS5n28RPD5XOoYTpSRWzAx6b2zQ/TrGFW9OtK25xC6unGH+MKcIH9HWWWY0Tf0P/KaTPrjg1uTrUwR+iPmHcP4IJuKq/pGdj2NT5bsM0zY9+3wQOcgw435ba8AN8OlQUM5jBsg8Y2gWiHMYctbPrmzbBO3HycjRbC1iE1xl8I7YnYkKMsc/hFI1duKPmICQDu3lZGNP1nipGwOg2xqzOQ1ybiNiZYh9h9MBlxQcPQHivFxnUaxCbl4ej5IddHhSZcLO+MrMlERhQfRQZioduB0nv4n5vc8BvRfiQbarnerD4mpyATiBWJsQhRXcMxvrNFnYaNZ8YQv6UQuXH8e62ZTr8YH8NgWxWK3smAmv2N2NVbUPQ75TOzycgXA/JMJSJlDaKFPlTfjUT068r1Y6tg4z8gd1skgvxYnmB5Cm6Hof00akaZA9+kxlIhc4uo9fh4eywipD+g8vBe/JjvsErdi/oeNmM0cbsX2qKfYiNL4/pVv9+EQZGkEI649Jdlo16oUdpmYc9r0BT+HBoxdnCp/QoGz9Shg8dP3raPn/xpQBlxJ7HvWRZi3y5nW78uoYpF7nZlGWlpuuIMPt4k4iQz6u4a/niFn1dCsyGctWNZ6D5u9n0PcA4+KLnKh13MxqyuFoFnHd5LUQy+OShti48//OcvsD7meUZ8/WmRunSoGwXrRGqEyuuejolY7jj4Nj9AMXQxm6xHF1ajB0bIG5ko4aMG3Ql8UpiAiPFhNB/7GbRWBtXEPdxlZXKEq+WdPe7BYFcW5lDkKUsgUndXKDMHi3orS0bDuHSyEyOs3r/mSxpMrm+uwL4NSqe3ZTr9jrSUYvNhPaTkA9Dzv9H4IXZYLUnZMr3unBHy6muywes/34ZeseVUGurGp1/wK1Zft4LXrO7nmLEMTkDSm/aO0ET/VWaYufM7U4VKu3YQiNCUfFQ3szbTWoHqbSuxdHQANXsq0cHrN96Hyp+UorLvNezkI/FLWpz9uVoe/Zp51I3mU8NYllKARjHz0DUWI3fVlK5dbb/yUmYLswsrkrE6TMgseInpj9OqZUbWwY6x2dWvCUdt04LXwxHuaCnAFd3hFXzvr/m5G9qGAZeWlf484thuutP354nz14rP0QKc/5sGpLy6AD/MqsNnWSLBzBj+q1vHzlOBByXmsF7cmXiIz2qykXNe3HoVw2hlBozvvEiNWyRk7rEseT1iztei69RerD0lhDIWATIRBLbnRQTZNF4V70FSN4pSTet9loHTmcprH7DrOpaN2GPswjIw6BIqzJf9/h1U5qShUpaZ6sQD2AkI7dGhuSyPHXKiwFTeMRi4ERiqwtqEKiWJoQoOR2pePps9WBgeJzwwKMs1XcfzEHtcvpwWZ7qzC0CywVC2WnkmcmA4KhaZi3Wo+VKHvHXWzyo0JRkxweLGBcxbPbc53ur5veXRQEsv+k+yOk2zf8K+vAIVM6RyPceUJSNJj7wkvZxkh2TEA5ZnsKEY6gYhYwS9Go2sf8pHakSga+2XcauFLz9Nv/QasioZqdWH0dzfgM3rLL7M1O4iZ0+/ztumfOMcV3SHRYhLjYWqvxNdJ5luLJ6T3SYP8YwHG36KWFF1cx43+j7HM4bavv5y4DmqTZlBWKIsH21B9r/ZRKQd4mA5ylvo10PLO/G76Yh+2m2NSxJQUp4DTdQiN4KOfGePGvuqDiDVahtqJDIPpyHOwbRcZjbK6zKLEL+LGZCwQLslBI4qaiv+5WAa4qdJ5501fpN93ENio1/t/lI0uxj85qPnXJNumWGMiEnDBykOhq4z6W4m/MKR8VExdsS8bF5CCAoJQ+r2D/Gv2ZHT1NERM2/1DFqVhRI2epfrxHfspBdi3xo5aXpE3St+na88+4CV0OyORUSwUt+gkEhoCtKQJN8JgqORlGg/iDDc6MXRgholUOtK+zXHTzZA8+Y0+g1aiR31hciNCUOoo7Y5a/rlOG+bM+KK7hiquHw08jYe7rxvhyTmy8/TtaWn6fq+gkdsZTUzYYTRaD0N9JkXgHl+Fo5h/DGMT6b7hYcf/FS2O5sm2Ee+Yv/6Y958f4u5x7PH9a2srBPveQ9FPd/HPjbVjnd73X2u8bLyDjRgY04Tri/PxNnyZCzlo6txVof9PGbgj4xfapEVpWT9RuFsq+ccY7h8GGtLu/GtNYX4pCBaMaQSc85b96LyZjj2aQ8g3rTt2AmG9lKsLetFTMEJlKx5uhk24RqetUjPZhC2cQQrx8Dxm2+XZ+qw3/LKq+gnp82tY3CLG59C22PE0vT1XuAYGN5W3nGjEnALYKMz07hi9Br6+UrJ4gT8vePNGl6Ok62eXwfjkvwMgthIXhLPQLo5gF6+q+iNBMS44Bjk+MmZXkjByciMJ8fwrPGsmcM3jKf9ERwx+9y6XIXKE93mH3Gpgr+DmDfTkbVNbfVDI+IZMT6G/jPlqDnfh14RJOZLOTGJG7B9k+mHZ4QnQc7hGULOgSAIb8W7934SBEEQzwRyDgRBEIQdTp3DgoAXxBXhLqQ7giC8GafO4a1VPxJXhLuQ7giC8GacOoddORlIT1xFo2A34LriOuO6IwiC8Fac7lYiCIIgnk98fXw89qdhBEEQxNeELwPcQUxMeOtLiQiCIIjZRnYOL8xX4cHYNK/GJgiCIJ47fOfNm4cAlQp/vncfow8MNIMgCIIg4CNJ0iQ78NVjCY/EedLmf10jCIIgni98xsfHJ9mBJ0+egJ/5MTExISeSkyAIgngeAf4f4oUQ02EyuYgAAAAASUVORK5CYII=;imageBorder=default;" vertex="1" parent="1">
          <mxGeometry x="39.59" y="770" width="325.88" height="35" as="geometry" />
        </mxCell>
        <mxCell id="5SupTR_W5KZlv2ZlH3EO-35" style="edgeStyle=orthogonalEdgeStyle;shape=flexArrow;rounded=0;orthogonalLoop=1;jettySize=auto;html=1;exitX=1;exitY=0.5;exitDx=0;exitDy=0;entryX=0;entryY=0.25;entryDx=0;entryDy=0;fontSize=25;fillColor=#ffe6cc;strokeColor=#d79b00;" edge="1" parent="1" source="5SupTR_W5KZlv2ZlH3EO-14" target="5SupTR_W5KZlv2ZlH3EO-28">
          <mxGeometry relative="1" as="geometry">
            <Array as="points">
              <mxPoint x="470" y="858" />
              <mxPoint x="470" y="588" />
            </Array>
          </mxGeometry>
        </mxCell>
        <mxCell id="5SupTR_W5KZlv2ZlH3EO-14" value="" style="shape=image;verticalLabelPosition=bottom;labelBackgroundColor=default;verticalAlign=top;aspect=fixed;imageAspect=0;image=data:image/png,iVBORw0KGgoAAAANSUhEUgAAAXcAAAAsCAYAAACe/vh+AAAAAXNSR0IArs4c6QAAAARnQU1BAACxjwv8YQUAAAAJcEhZcwAADsMAAA7DAcdvqGQAABBTSURBVHhe7Z0PUFXXnce/gDyD4GBoTU1rQ8nUsevAlsFpRjqhdnyLI5HB4Y/N0ygkKk4A7UM3+A/GEheUaqLS8GcjuAqmCKKwYbCPkXnOEDqLS7aMHRhbSkYWF1fHVJQVql5E95x7z328/+9B/PMe/X1mrvfe3znknXPuud/7u7/feS8+TxSgbo8fPzYdEwRBEN6JDxNzpuNPMD4+jkePHsl7vnGR55DIEwRBeB8+TMifcDGXJAkPHkq4L/Yk6gRBEN6LD/PWn3Bh/9v9B7hzbwTffnkOZgcGwtfXR1QhCIIgvA1fHn7h4RjusXNhD54dRMJOEATh5fjy8AsXeB6K4R47QRAE4f2YxJ3vyWMnCIKYHvjyfyh5ShAEMb3wefDgwZPR0VHc/r8R/DD0+8JsycGyavzu4n/ISVfCNbMCXsJby36KHZmpwkIQBPF8kT13Z3BhP3v+Ign7JOBjxceMjx1BEMSLwKW4c4+dmBo0dgRBvChcijt57FOHxo4giBeFS3EnCIIgvA8Sd4IgiGkIiTtBEMQ0hMSdIAhiGkLiThAEMQ3xPHHfdgBf/q7KYrtYFCcKFdYVldvUmdgOIE+utQFn7JaLrX4n1sn1PJhrTcjQJuMX5b3C8Ly5i56ao8hbXYUeYXGKw/aOoac8A1qtDnnnbwnbZBnDQGsV9m0qROtNYfJo3By7m0bkxSdD+w6rd1/Ynilj6CrSIUabj9YhYfJ6BtGwKRkxSVXoGxcmG26heSuro92D5knOH6m/HRV5euxrmurcFTi51kONe1jbePvEVtwtSqaOR4l73qdMdGO/K84mmP2POnz56QZxxnD6cwlu/pSCx//iArsJa2qYMMyHbuVCYXve/A/ajrejbWhMnDvjWbf3DrqbmtDaP4qHwuLZTGbsniPXDKhoHYMmdgWWhgiblyP9/ixK+4Hwt7VY4CeMT5GRywZUdwxixOGDwzPxHHFnHvsq+dcPRtFZvhqRWmU7fHlULsb3f4KyROVQ5d7lalO9iS0H/yKXViLZZLsIdu0Z19Go2hL34zPZ5qEMfYEG+SZcg/jXhM2Tcdpef4RnlMNorEXByleEjZCZp0VB8zkYf5uG8ABhe4b0nT8rP4Cz1i6BRti8m7toa2qHpIlBesJ8YfNQnFzrEKZH7cZzaD9oGaX4Jrj8bZk3Vr4rjp4t3Gvn4t7fokNK8UyYfqBy/CH2VNQi8sqEfd2BMuh/HIh7fzyNZbtbREVn8BDNUoQxcf/8rT0oENbnQef5k+JocvQd24gNdWNIL65GargwMnqKk5HRFIfyCwm4Xfgr7Gtjr4rBUcg6kI2kheInm7/uQnVRKU5fvosRJqwhYUuQnpOOeLWcMdLLPLjis7jQy+sIEvLRro9gr48G7HinEh3CbAn7bOMmmDVJxnl7xQkjeks5DiaaCfwfKhGzwwDdrnx8q+UoqnibNYGIfjsXBe8uZALUjVJtPmpFdUsWYudv9yN+nnImsT6VHjqNZubdS6zfoZFx2L4rDVFzlXIMd6PhUCWq/jCIIUnYBLqD55C12J3xtW4PG995P0KyPhupb8xxf+xs6tkZ1/Fb6DpWhsPnuzHAX+MD5mDpyixs3xyFENlDFW1ZkY3yuUYUneX1WHvCE/BR4VosCOJ1zBhqx753jqI1IhOGg1qoxeo1UsdACWFk4NdXLMd3qKMKh0uM6LjJx1fB/Hry0MKqErOQHGtvVHQKtuvjEKp+2LV2lBafRLM8N80x+yw35q+JK1VYt7UJUsp+nMmwfGMc6qxByUnWXnmO+0OjGYMkmfdpFAONFSg6dQk9w+wNy2p8reeuORP9djEfOO5caxVxP5juRXPEfChp/TP6eHtlLK+ROR7iucfhuy/z/XX88aiZsHP8ZqJw02okW9sZs3+8xjaWbh6+8VbuX0Jz411gcRqS7M6Aqzi/bzfymPDwm0wa7sKRQ0bc4EUjl3AktRAVpptnDEP97fh1tlmsergdhzMr0WAu7N8El+11TW1RPkrVNkuj6DhVhuZrcpF79J+DnvdJFnbOGAYuN0G/tVLEN0fRdrgQRzoCkfYp85CYl3RmMxcDf8TnVgtRU3Eyvjaw8b3ZjYrdBycdy3XOLbRu/yX0smAL033mpZ4txOq8dsvrxh6KGafUeqw9PefYA2FQLjLnRutZtEqBSE+dEHa3YSL6fl4T2syE3SWsvV0XK7HhuBo/7kftjqOo7V+MwgZ2DS5Uo3gFF+w5yCoTAuXO/DUxhq4mAwYQgfS3LYV9pJWN0+5zaDXNcS7s8oGJgVN7sK6kXRF2jhjfX5Z3u99HG57VfGAO1PEP5PkwIezO8RBxVwPgL+N7yeKQCX5ZvSLY/3WhHl0ttonV6cpIWwsaJH8kJfzMwU3Yi+bO72BbWTW7QXKh4+/X/Vfx3+zmvnH+NPtbHn/Mh+GC2Q0k9aK1QySEpBFlwmvCoNuSi8/qa5VXQtVTmBeHg/zcmA+dbOCehiKI7XY8DmftDdcrf/f5FhdxeNaW9I9Zf4zVOPgmNwzixtd8H4Es+XPLsXMRP+eeitoW1WNhN3ldPXqYUMduL4dR7ncxtvH6XxvQdoXXYUj8ptBgtst4hOPxnWiP2C4cR4Hc3l4MXGc7d8fOpp4VV9ibVQ9r79w4FNcrf2+szkQsa4vUaUCHPDYq/qbrbcxdIlt6bt6R9ybG2fWvY4IfloLYqTyA2djd5vu5rP85zEtuVtpk/hZmCi2IzfhJMhYwu/QVe1OSa0iKwAZpHIaE3Jq/KqZQoHX+YBAXTnWxTwtE0i4xH0zzR8AckoYaNh6aKOytFvP/RBqiWdFA43/iL2xvPXe5t672baLfLuYDx9W1dpOH4ukUGpmMvZ8Ui37Z99o5HiLuBlyX5+IsfDtUNjCY4FsnPa0SqXZj7hsrRamXwm7ChmPM0wlbjaRof2G0JXxtphIm8ItCloFf5GxEBwC3byoeW09dPuKWJyNmeSr0LSJvocIEY9eBBCwNGkRtSSHWrdYhJl6PI439k/dY3GyvS1akITWSe3GBmD3pRN8d/O91LtxjaD2cAa3cb9YfVdRlArF4ZQxCNFdRwldWaJOxrm4UsRtzkbWUf64ljsYX46PoaylD3jup0PJVDcs3Iu/3yt88TYa+6pXfFMITVyBKjIfmexGI+qFy/NAiufdPyNocgSA/VidYfgW2YaT1NCqG2QN4vRavCtukiFyDf9sSg3Dpzyg9tAe/4Ks+kvagupO9sanc7EJt3gdYx8r4+Gq3nkOfKFJYiKUp82VRztUpczO383Xocj+ETjz73Zq/gr66KrTx/MHb1vmDO7ghC+vPEBv7CjT2kqzDrA6f7FIX9qXy1UPss96rchBOc8Jzmg+c8HcPYOey+bh35Rz2bdWzea7DKn0Vuiwe9BN4iLj7oOCK8pgLW14uEqcGvJ+oCLYpqWqNjz/8Z86y3GZ4To54KkgdBlQNg90EWoQ6yfyHL7KfPJoZoAhV9Pr9+FwWpYnNwst6Iw0F3GM3HMdnuXEIHx9EQ8mvUGshiCp3cJu1yR7utvfpcQcjNm1hDwT5lYF7aqpHM7EpIRfmzZ1sxxDr9wkeEmB2Y0Mx9q5VRNEaR+M71FSIDYeMkBL2w8j/G/UfYZtFSMcax2PnjJDXXpcFq6exBV1iyaLUfwlffMWPWH8nlXxlfWev8wiOQ/ybtg8ylZ4rTFi5WNWVodRmHgQiNDEb5Q1szjQXo3zzErw63IuK3aVo4/0b70bpe4Uo7X4d2/mbxoVanPlQK3vuJri3fGoQCxJzUC88f0N9PrKYYKm4O3/lUGAT04XFCVgeJmxmaGS1v4q/iNDeUEcTzstjJwgIUt4yg2NQcEJ47qbNfjz8r0O2OjT5+fANCApDfG6xPC7GE/nYxq7lUE8T9IetwnSCGWL/wvE5koPGf6hB4muz8JP0KnyZLgpMjOJPlwxsPxF4V2Lua8SZyt/wZUUGMhvFqVcxiGYmQDzzn7RUJGMmyYKENYhurETHqT1YdUoYZcwSL2rSxoaXEWQVV5FvEukS8pLUeJl5MshVe22ToR0lGYgpYQeLNuHzT+LgvpOuwUz5uX0LpZnJKJVtap94AjYOoZ0GNBTp2SYXCtT2jmKEi2R/GVbFlSlFDE3wQiTps5n3biYcTrg3ooQ7Oo7pEXNMPnSIs7GzST4yZyZDq1wTObEZGYO0uQZUfG2AfrXltQpNTEB0sDhxA9NSwc32lwr+YFEU0NSFnpOsTw7y/7btFWjYg0bu56gScpGM0Mcb5SIbpDHcY3X6avKhrRE2RtBrUUj/52wkhQe6N38ZN5p4+MZR6DICP0+cg+q6Xhx5LxlHhNWC4CVIYnVaG9uR9167MAqsk5lizPpqPkCMaLeaUHVnPri81ovVBLZsUmjKR4yczFXnjJ06Ak2wv90wl+e4ub7+cuI0skUNVE2ghF82IuPfrTKqdrETzvEWeoyo5TfhuymImuqyuHlxKDiaCV3knEkkzfjKEi32lu1HksUyxgikHUrG0hAH4Zan0V63mYPYHUwAwgLtTmRN5Cb85kAyYh2Uc3GIXW8b95eY91m7rxANbiZvufeapY4tE7bw6GTsTLTjOroaO1f4LUTqp8w7i56PENGhoJAwJG35CP+aEeGgj/ZwvVQwaFk6Cpj3LPeJrxhJycXeFXKRY0Tfi09kK9c+YAl0u2IQzoSGExQSAV1OMuLlM0FwFOJX2joBI9e6cCSnAl08p+HO/DXlD9ZC96b98V2w8UPsVfvEV1+xPpVbrKbhy3M/RvH6KFObHRGyMlseH/U6mOP+fHj6aILnszmdi/oc+8taPWYppInHYxgbs8wG+8wIwAw/M2Eff4ixR46+UeAHP431yprH7E8esH/9MWOmv5nv/+xxfykkuwl3v4+8zh9hL3tVjfX4L5h4WXt7a7Au8xwGFqXhzNEEvMq9sXHWh308RuqP1I9rkR6pVJ1WOFkq+LwZuXgIqwov4VsrcvFZTpQiSBJ7uG7ag9LrC7G3dj9i1WWrTuArYVYVdSE65zgKVkztDffvAc8LUDMP3jqObiHsHL+ZNnUmNtslk7ybfnLZ8xX2SXHtC9R2juHVlDVeIOwMb2vv+JiSLA5gXprqFwxfRQ9/W54bh59bLSmeHjheKvhCGJfkaxDEPH1JXAPpeq+cENS8EYdoN4Rdzh/UdUEKTkBaLAm7MzzPc59mTPVLTMTT58bFMpQev2T6Eo4m+BVEv5mC9M3aiS/ZEM+O8VH01B1FRWM3usTPMvBQU/TKtdiyXv1iFvG0IHF/xpC4EwTxIvDudYMEQRCEXUjcCYIgpiEuxX1WwEviiJgsNHYEQbwoXIr7W8t+Ko6IyUJjRxDEi8KluO/ITEXKymXkhU4CPlZ8zPjYEQRBvAhcrpYhCIIgvA/Zc/fx8div9hAEQRBTwJcLu6+vryzwjx9764+yEARBEOaYxP2lmRrcG3Xw07oEQRCEV8F03RczZsxAgEaDv965i+F7I+TBEwRBeDk+4+PjT9gGSZLw4KGE+2L/xOr/ekQQBEF4Dz6PmZvOhZwL/KNHj+Q935hdrkAiTxAE4X34cGXnAq5uXNTVY4IgCMIbAf4fh6cGBfPGqrkAAAAASUVORK5CYII=;imageBorder=default;" vertex="1" parent="1">
          <mxGeometry x="39.59" y="840" width="298.24" height="35" as="geometry" />
        </mxCell>
        <mxCell id="5SupTR_W5KZlv2ZlH3EO-36" style="edgeStyle=orthogonalEdgeStyle;shape=flexArrow;rounded=0;orthogonalLoop=1;jettySize=auto;html=1;exitX=1;exitY=0.5;exitDx=0;exitDy=0;entryX=0;entryY=0.75;entryDx=0;entryDy=0;fontSize=25;fillColor=#ffe6cc;strokeColor=#d79b00;" edge="1" parent="1" source="5SupTR_W5KZlv2ZlH3EO-15" target="5SupTR_W5KZlv2ZlH3EO-28">
          <mxGeometry relative="1" as="geometry">
            <Array as="points">
              <mxPoint x="510" y="928" />
              <mxPoint x="510" y="628" />
            </Array>
          </mxGeometry>
        </mxCell>
        <mxCell id="5SupTR_W5KZlv2ZlH3EO-15" value="" style="shape=image;verticalLabelPosition=bottom;labelBackgroundColor=default;verticalAlign=top;aspect=fixed;imageAspect=0;image=data:image/png,iVBORw0KGgoAAAANSUhEUgAAAXYAAAAtCAYAAAC6YEDlAAAAAXNSR0IArs4c6QAAAARnQU1BAACxjwv8YQUAAAAJcEhZcwAADsMAAA7DAcdvqGQAABEKSURBVHhe7Z0PUFRHnse/gIxBsFB2dTXJ6pmKx56FuxTWWpIKcuUcFkQKiz+uo1FwVawAJoPeYVQoQzxQo1mRjcBGcCNoFAThpDBDSY21hNRi4YVyjyn3WFOyehgtPUFOWPWN6HW/128YmIEZiCLD/j5Vz/de9xum+/f6ffvXv+43uj1jQKAeWiURBEEQLoYs7FzI1e3p06eWY4IgCML1cGNCzjT8GXp7e/HkyRN5zzcu8BwSeIIgCNfCjYn4My7kkiTh0WMJD8WeBJ0gCMI1cWNe+jMu6n97+AidD7rx46lTMNnbG+7ubuISgiAIwpVw5yEXHoLhnjoXdd/JPiTqBEEQLow7D7lwcefhF+6pEwRBEK6NRdj5njx1giAI18ed/0MTpQRBEOMHt0ePHj3r6enBvf/rxpuzfyqS+7M/vwRfXfijPMFKOGaS1yt4Z8lb2JYcL1IIgiBGD9ljHwou6hXnLpCoDwNuK24zbjuCIIjRxqGwc0+dGBlkO4IgXgYOhZ089ZFDtiMI4mXgUNgJgiAI14KEnSAIYpxBwk4QBDHOIGEnCIIYZ5CwEwRBjDMcvqC0cNk6cTRKbNmLS2GvihOFB/9ViiXbDeIMWLOvAPqfTxJnA/keZ9/ZgSysx+mvQjFHpNrQcwW5Kz7BCXH6omg6d0wcjYAb1Uj6dTHuxe3B6SR/kTia3Ifp5DGUVk2FrjwBASJ1UAYtrxmmgg+gr+hE8NbfImvZdJE+HMy4XncSxWXtCM5KR9gMkTxmcdJ2t43I2JiPRt8o5Bax67xE+gvDjOZ9a6Gv+xl2lWcizE8kuzTtqNyoR05HFH7PbD3XQyT/HTOmPPaMz4ttRJ0z+ec6XPp8vThjDPkTCE7+PMKY/xUF9gCePAkTXodu2csQdc7/oP5oA+o7zOJ8KF50eTvRUl2NurYePBYpY5vh2G4UuWFAYZ0ZmrBwhI4LUQekbyqQ1wYErNSSqAvGjrAzT325PGDoQVPBCgRqle3g5R45Gz/9JfKjlUOVB5dLLNf1bWn4dzm3CLGWtAtg951xE1VqWvSeF+6t/yA6vkal/ACuQuQskTaWGbK8nghIKoDRWDpCb30cM0OLrJozMH45Gt46cPVchdz5pqxeBI1Ic23uo766AZImBIlRr4s0YsyEYri3zoW9rVaHuNyJsPzQZO9j7CwsReCVvvQ1e/Oh/4U3HvzpFJbsqBUXDoUalrmJs+/sRJZIHQ1GGoq5emQD1peZkZhbgnircbwpNxZJ1REoOB+Fe9kfYXf9HcA3CCl7UxHjL352+W4zSvbl4dTl++hmouo3ZxES0xIRqeYzuluZ55ZbgfOt/BpBVCYa9POB2wZse7cIjSK5P+y7jRttQgtDl1ecMII3F2B/tJW4f1uEkG0G6LZn4ke1h1DMy6zxRvDKdGSt82fi04I8bSZKxeX98ceHX+5BpAjLSKxOeQdOoYZ59RKr9+zACGzdnoCgaUo+ulpQeaAIxd+2o0MSaQLd/jNIWeCMfQeWh9l3xs8Qq09F/MIpztvO5jo7du29g+Yj+Th4rgXXH7JzrykIXZaCrZuC4Cd7pqIs4akomGbEvgp+HStPQBQ+zV6NuT78Gis6GrD73UOom58Mw34t1Gz1Hqk2AO6g5v0kfHKlv307Gotx8LARjbe5fRWs72dH1U4sP9wqH8uw8gYFx2GrPgKz1S+70YC83GOokdumNVbf5UT7tXClGGver4ZkJ1w5dHnV+2jnnszbiLOfReB7bpcrWiS+1oLi+k7MjktFYm8xMqruQLMgGV/un45T7G/8JTwKr142oKZjKhJZe3t85BBKbgOhatjR5l6ztum/CDp9X50U24HZIB3+tR/hg+Nt6PZio9+0j5ESOgW3yvT41ZF2BGzKRcHKvg7sakE81ldICNv+O+wKY+1PMEY89gi8OpXvb+JPh6xEneMxEdkbVyB2YDpj8i9W4dJXxf0365CNq/LwImqq7gMLEhAzUEFlruHc7h3IYKLDG6zU1YycA0bc4lndF5ETn41Cy4NjRkdbAz5JzUYda2wyXQ04mFyESmtR/yE4LK9jSvdlIk8ts9SDxuP5qLkhZzlH2xnoeZ1kUeeYcf1yNfTvF8HERZGNBOsPZiOn0RsJn59Bg/EMTm/iQuCJyPQSIWgqQ9jXBmbf2y0o3LEfNap9nwt3ULeVz0sIUec8ZN5pRTZWZDT0v2+sQ0w6rl7HymM6wzqDdjnLmlt1FaiTvJEY3yfqTsME9L2MatRbiaRDWHmbLxRh/dEWkdCG0m2HUNq2ANmV7B6cL0FuOBe2KUjJF6LuTPu1YEZztQHXMR+JKweE/0ZSXnt8Z0Sh3A7MuFpxANuYqPO/1/1tBf6ghAHQXFvN7r2ZNZQ7KNx9gIk6D7+ZUV/WwMpmD9Y2W3mdTsHUK5JkrqG54BDe46LOTx+2s+fiGJrZfZ0ZFoVQlmSqa+5rh/y5q+4BpkVg1ZI+UeeMEWFXA95T8VqsOGRin1+uiPV/ni9nxivGhX0RIm98011fi0rJEzFRiwd5AFtR0/QTbMkvYQ9HOnR8TN12DX9lDeDWuVPsszzemAnDeauHR2pFXSPzPjlSt9JwNHOg25yOE+WlstDJ3jpnRgT283NjJnRyAvdqFDFssOOtD1XeAL3yubObHcTdWVkSf8PqYyzB/rd5Qjtu3eX7+UiRv7cAH87j59yzU8uiepPsAS8rh4mJdNjWAhjleudiC7/+rgH1V/g1DIk/cBpMdhiDGNy+feUR2/mjyJLL24rrN9nOWdvZXDeAK2xEZWLlZQ9tbrnyeWNJMsJYWaQmAxpl26h4Wu63MX2RnGK63SnvLfSy+1/GxH5OHMJG0vky293j+2ms/mnMO65RymQ9+vKL3iPqKcr7WSzmsnTpOzZCkq+QIHFV9NEMGgZyqv2qWMJ/duYLnCivc3hDt7cEJ9bxz3nKHv9puS3fwS2lUmxEp0XuWdbeXmPHGtY+S0RbvdmJBzzfcq/FZtiDFH6txNpUv/toRt031xC56yirt/gbrN5/5R2a32Loopgd2ljnLNpz9zdG2Vah65bbzC2MEWE3cBswJuHHs+UEBhP7gROcAyZN7cbYNxSJXBeFPYCVR5iHM2cFYoI9RaItAauTldCARxBSDLzBpCLYC7h3W/HUTGWZiFgai5Cl8dDXinkKFSYW2/cyD8CHeQSHs7FmhQ4hkXrkVLUN37txsrwOCU9AfCD33rwxediTep34/qbiJdUdTIJWrjerjyroMt5YsCwEfpprOLyR5WtjsaasB2Eb0tlQl39vfwazL3p7cLU2HxnvxkPL/kbI0g3I+Eb5zPOk47tW2TMLiA5HkLCH5rX5CHpTOX7cz9P7F6Rsmg8f9nBrfOWhrw3ddadQ2MU637VazBRpwyJwFX6/OQQB0n8j78BO/CoyFtqYnShpYiM1ldvNKM34N6xhedy+2vfP4KrIUvBHaNzrsiCn65S2md70BnTpH0Mn+n2n2q/galkx6vl8wUo78wXOlNcpFiN0IWuTPtyub2Bx8HRMVDL6CA1BEO+sfNnxmyF4i4u2NTykdiwbev6c8TYTsRN53Amwg2ZJohx6gcd0RH7G210BYuSlfazzjo5jjkEPaup5uOs+Gpn3Dt8oJFiFYFTGiLC7IeuKUtM5SwvEJKkB70UrYm2ZQB2Imyc8J07qv00YO/PBI0FqNKC4i7WVOC1mDzHDHzDP/kTRRC9FpILX7sFZWZD6tn7e1cIEZHFP3XAUJ9IjENDbjsrDH6G0nxiqdOIeK5M9nC3v86MT3TZl4Q+eso/Znqt47Fb1VsIs7Th/rAEdrN5f8DAASzdW5mLXakUQBzKYfTuqs7H+gBFS1B4Y+d8o/xRb+oVxBjK47YbCb9YbsliZqmrRLDxDqe0ivv6OH7H6DmuildW9gnW+vhGIfNu2E1MxXWGiyjuusnzk2bQDb8yOTkVBJWszNbko2LQIM7taUbgjD/W8fr0tyPt1NvJa3sBWPsI4X4rTH2tlj93Cw4uoPN6OudFpKBcetKE8EylL+mztbPu1hCEWRGGp3TXNDsproQV/4SGVrjZUHiweZG7kh2E6/AH0x1vxj1uPK+3uizToBoq/YME85b7bZdZixLC2dquajdhMbLTyLbdThN2VQBPE/qXjlpOGqn86iehZk/DLxGJcShQZFnrw54t8LXtfoF2Jsa8SZyp/w6XCJCRXiVOXoh01THz4DH8M77VHwNyoVQiuKkLj8Z1YflwkylhNTokJS1umwmdALEXDW5l0ERkxaozMepLPUXltJz4bDych5DA7EBNUzjvnGkyU++w7yEuORZ6cptaJT7ZGYHaTAZX79GyTMwVqeXvQzQWyLR/LI/KVLIbG1x8x+lTmJTk3RH/QrYQ4Go/oEXJEPhyUoWxnM9HIHJkkrXJP5EnMwBAkTDOg8K6BeXr979Xs6CgEc+/QSSzLATfZXw74D/OCgOpmmI6xOg0y129bXoGGdTJyPXuUMItkhD7SKGfZIJnxgF1z9WQmtCdFGsNnVhAS/zUVMQHezrVfxq1qHrIZPFzpsLzM+w5YyHZN7chhI7gcnvRCYHXuVkaTpRm6QRYBOMsUhMVHoVBfjYy0i/Jzlxtuv92OHffW3VOeJA2stR2jKCGXDUj6jwGzp3axE8JxFUxGlPIHcF0cgka69G1GBLIOJUMXOGUYE2R8BYkWu/L3IKbfUsX5SDgQi1C/QUIsz6O8TsMa9Tb28M/xtuvRaAI34rd7YxE2SD4XhrC1tnF+iXlxpbuzUenkRC33AlNU2zKRCAiOxYfR9lxGB7ZzhIc/4j/PxJbg1+EnKuTjNwcxmz/F75LmD+7V2eB4OaAPG/5nMa9ZrhNfeROXjl3hctbgiLrnfpGq3HuvRdBtD0GAr1JfH7/50KXFIlI+E/gGIXKZrQPQfaMZOWmF8iShU+3XMl+wGrq3nbTvwPIyjz50M2tPs/rKm7iXfa989jzxRPA6q3Yrr2xKRoo8LzMCArTQseYmsU5yqOdu7L15+tQMs5n3cH24TfDCBA8rUe99DPOTfkFGKzzgoRm4guYp+8gj9q8nJkz0tPL5XzzOL3dkD+CO95DR5CpvBLpYeVtPYk3yGVyfl4DTh6Iwk3uuvawOu3mM3BPxvylFYqBy6bhiiOWAo033hQNYnn0RPwpPx4m0IEXoJNaxbuQxZ3/sKt2DMHVp6hB012Vj+b5mBKcdRVb4yEa2rorUZkTOjnzUdDFvvVLtpGwZewFp5rkPjJv3E3WOx0Sba/o222WRvJoect7oivqwuPE1SpvMmBm3yjVe83a18vaalYlhL+ahqT5B1zWY+Gh9WgT+WSwIGl8MsRzwZdAryffAh4mRJO6BdLMVzXeZQ70wAsFOiLo8X1DWDGmQScPxCg8tyRPSG5mo3/VEzPbEIUfJY89jH2f8oN+KIZ4rty7kI+/oRcsLKxrf6Qh+Ow6Jm7R9L9AQL47eHpjKDqGwqgXN4qcWeHgpeNlqbF6rvnRF2EOdM+Aho1Vp4mW4ISBhf8GQsBMEMdq49tpAgiAIwgYSdoIgiHGGQ2Gf5PWKOCKGC9mOIIiXgUNhf2fJW+KIGC5kO4IgXgYOhX1bcjzili0h73MYcFtxm3HbEQRBjDYOV8UQBEEQroXssbu5jdnXdgiCIIhh4s5F3d3dXRb3p09d9UdWCIIgCBWLsL8yUYMHPYP8PC5BEAThMjBNd8eECRPgpdHgfzvvo+tBN3nuBEEQLoxbb2/vM7ZBkiQ8eizhodg/G/C/FREEQRCugdtT5p5zEefi/uTJE3nPN5YuX0ACTxAE4Vq4cVXn4q1uXNDVY4IgCMLVAP4fA6EP6KaoZ8QAAAAASUVORK5CYII=;imageBorder=default;" vertex="1" parent="1">
          <mxGeometry x="39.59" y="910" width="290.89" height="35" as="geometry" />
        </mxCell>
        <mxCell id="5SupTR_W5KZlv2ZlH3EO-17" value="The Base Station Status API returns detailed information for a set of Base Stations" style="rounded=0;whiteSpace=wrap;html=1;fontSize=10;" vertex="1" parent="1">
          <mxGeometry x="39.59" y="180" width="370.41" height="20" as="geometry" />
        </mxCell>
        <mxCell id="5SupTR_W5KZlv2ZlH3EO-18" value="Gets the status of the job if it is currently running" style="rounded=0;whiteSpace=wrap;html=1;fontSize=10;" vertex="1" parent="1">
          <mxGeometry x="39.59" y="250" width="220.41" height="20" as="geometry" />
        </mxCell>
        <mxCell id="5SupTR_W5KZlv2ZlH3EO-19" value="Export Device data from the managed application" style="rounded=0;whiteSpace=wrap;html=1;fontSize=10;" vertex="1" parent="1">
          <mxGeometry x="39.59" y="390" width="230.41" height="20" as="geometry" />
        </mxCell>
        <mxCell id="5SupTR_W5KZlv2ZlH3EO-20" value="Get the status of an ongoing Device Registration, Activation or Deactivation task" style="rounded=0;whiteSpace=wrap;html=1;fontSize=10;" vertex="1" parent="1">
          <mxGeometry x="39.59" y="460" width="360.41" height="20" as="geometry" />
        </mxCell>
        <mxCell id="5SupTR_W5KZlv2ZlH3EO-21" value="Gets the status of a pending or ongoing firmware update over the air transfer" style="rounded=0;whiteSpace=wrap;html=1;fontSize=10;" vertex="1" parent="1">
          <mxGeometry x="39.59" y="530" width="350.41" height="20" as="geometry" />
        </mxCell>
        <mxCell id="5SupTR_W5KZlv2ZlH3EO-22" value="Retrieval of status for existing Multicast Group defined on an Application" style="rounded=0;whiteSpace=wrap;html=1;fontSize=10;" vertex="1" parent="1">
          <mxGeometry x="39.59" y="670" width="330.41" height="20" as="geometry" />
        </mxCell>
        <mxCell id="5SupTR_W5KZlv2ZlH3EO-23" value="Returns the per contract usage data for a given Application, month, and year" style="rounded=0;whiteSpace=wrap;html=1;fontSize=10;" vertex="1" parent="1">
          <mxGeometry x="39.59" y="810" width="350.41" height="20" as="geometry" />
        </mxCell>
        <mxCell id="5SupTR_W5KZlv2ZlH3EO-24" value="Returns the details of all usage data for a given Application, month, and year" style="rounded=0;whiteSpace=wrap;html=1;fontSize=10;" vertex="1" parent="1">
          <mxGeometry x="39.59" y="880" width="350.41" height="20" as="geometry" />
        </mxCell>
        <mxCell id="5SupTR_W5KZlv2ZlH3EO-25" value="Returns a summary of all usage data for a given Application, month, and year" style="rounded=0;whiteSpace=wrap;html=1;fontSize=10;" vertex="1" parent="1">
          <mxGeometry x="39.59" y="950" width="350.41" height="20" as="geometry" />
        </mxCell>
        <mxCell id="5SupTR_W5KZlv2ZlH3EO-26" value="MongoDB" style="shape=dataStorage;whiteSpace=wrap;html=1;fixedSize=1;fontSize=25;fillColor=#dae8fc;strokeColor=#6c8ebf;" vertex="1" parent="1">
          <mxGeometry x="640" y="167.5" width="180" height="80" as="geometry" />
        </mxCell>
        <mxCell id="5SupTR_W5KZlv2ZlH3EO-27" value="Influx" style="shape=dataStorage;whiteSpace=wrap;html=1;fixedSize=1;fontSize=25;fillColor=#d5e8d4;strokeColor=#82b366;" vertex="1" parent="1">
          <mxGeometry x="640" y="367.5" width="180" height="80" as="geometry" />
        </mxCell>
        <mxCell id="5SupTR_W5KZlv2ZlH3EO-28" value="AWS S3" style="shape=dataStorage;whiteSpace=wrap;html=1;fixedSize=1;fontSize=25;fillColor=#ffe6cc;strokeColor=#d79b00;" vertex="1" parent="1">
          <mxGeometry x="640" y="567.5" width="180" height="80" as="geometry" />
        </mxCell>
        <mxCell id="5SupTR_W5KZlv2ZlH3EO-29" value="Elastic" style="shape=dataStorage;whiteSpace=wrap;html=1;fixedSize=1;fontSize=25;fillColor=#f5f5f5;strokeColor=#666666;fontColor=#333333;" vertex="1" parent="1">
          <mxGeometry x="640" y="767.5" width="180" height="80" as="geometry" />
        </mxCell>
      </root>
    </mxGraphModel>
  </diagram>
</mxfile>
